<svg width="40" height="40" viewBox="0 0 40 40" fill="none" xmlns="http://www.w3.org/2000/svg">
<rect x="0.5" y="0.5" width="39" height="39" rx="19.5" fill="white"/>
<rect x="0.5" y="0.5" width="39" height="39" rx="19.5" stroke="#CBCED8"/>
<g clip-path="url(#clip0_1_1847)">
<path d="M29.3825 23.5L27.2158 15.6908C26.7532 14.0204 25.745 12.5526 24.3519 11.5212C22.9588 10.4899 21.2607 9.95411 19.5279 9.99924C17.7951 10.0444 16.1272 10.6678 14.7896 11.7703C13.4521 12.8728 12.5217 14.391 12.1467 16.0833L10.4708 23.625C10.3897 23.9904 10.3917 24.3693 10.4766 24.7338C10.5615 25.0983 10.7272 25.4391 10.9614 25.731C11.1955 26.0229 11.4923 26.2586 11.8297 26.4205C12.1671 26.5825 12.5366 26.6666 12.9108 26.6667H15.9167C16.1079 27.6086 16.6189 28.4554 17.3631 29.0637C18.1073 29.6719 19.0389 30.0042 20 30.0042C20.9611 30.0042 21.8927 29.6719 22.6369 29.0637C23.381 28.4554 23.8921 27.6086 24.0833 26.6667H26.975C27.3601 26.6665 27.7399 26.5774 28.0849 26.4062C28.4299 26.2351 28.7306 25.9866 28.9638 25.68C29.1969 25.3735 29.356 25.0173 29.4288 24.6392C29.5016 24.261 29.4852 23.8712 29.3825 23.5ZM20 28.3333C19.4848 28.3312 18.9828 28.1699 18.5627 27.8716C18.1427 27.5733 17.8251 27.1524 17.6533 26.6667H22.3467C22.1749 27.1524 21.8573 27.5733 21.4372 27.8716C21.0172 28.1699 20.5152 28.3312 20 28.3333ZM27.6375 24.6708C27.5597 24.7739 27.459 24.8574 27.3432 24.9145C27.2274 24.9717 27.0999 25.0009 26.9708 25H12.9108C12.786 25 12.6629 24.9719 12.5504 24.9179C12.4379 24.8639 12.3389 24.7854 12.2609 24.688C12.1828 24.5907 12.1276 24.4771 12.0993 24.3555C12.071 24.234 12.0704 24.1076 12.0975 23.9858L13.7733 16.4442C14.0686 15.116 14.7994 13.9247 15.8495 13.0595C16.8997 12.1944 18.2088 11.7051 19.569 11.6695C20.9291 11.6339 22.2621 12.0539 23.3561 12.8629C24.4501 13.6719 25.2422 14.8233 25.6067 16.1342L27.7733 23.9433C27.8087 24.0668 27.8148 24.1968 27.7913 24.3231C27.7677 24.4494 27.715 24.5684 27.6375 24.6708Z" fill="#434343"/>
</g>
<defs>
<clipPath id="clip0_1_1847">
<rect width="20" height="20" fill="white" transform="translate(10 10)"/>
</clipPath>
</defs>
</svg>
