<svg width="19" height="20" viewBox="0 0 19 20" fill="none" xmlns="http://www.w3.org/2000/svg">
<path d="M15.9476 20C15.6393 19.9992 15.3343 19.9372 15.0501 19.8178C14.7658 19.6984 14.5081 19.5238 14.2918 19.3042L9.16677 14.2092L4.04177 19.3075C3.71263 19.6414 3.29051 19.8685 2.83045 19.959C2.37039 20.0495 1.89373 19.9993 1.4626 19.815C1.0272 19.6399 0.654724 19.3375 0.393818 18.9474C0.132912 18.5573 -0.00429938 18.0976 0.000102697 17.6283V4.16667C0.000102697 3.0616 0.43909 2.00179 1.22049 1.22039C2.00189 0.438987 3.0617 0 4.16677 0L14.1668 0C14.7139 0 15.2558 0.107774 15.7613 0.317169C16.2668 0.526563 16.7261 0.833478 17.113 1.22039C17.5 1.6073 17.8069 2.06663 18.0163 2.57215C18.2257 3.07768 18.3334 3.61949 18.3334 4.16667V17.6283C18.3381 18.0972 18.2014 18.5567 17.9411 18.9467C17.6808 19.3368 17.3091 19.6393 16.8743 19.815C16.5808 19.9377 16.2657 20.0006 15.9476 20ZM4.16677 1.66667C3.50373 1.66667 2.86784 1.93006 2.399 2.3989C1.93016 2.86774 1.66677 3.50363 1.66677 4.16667V17.6283C1.66647 17.7672 1.70733 17.903 1.78419 18.0187C1.86105 18.1343 1.97045 18.2246 2.0986 18.2781C2.22674 18.3316 2.36786 18.3459 2.50414 18.3193C2.64042 18.2926 2.76574 18.2262 2.86427 18.1283L8.58344 12.4442C8.73957 12.289 8.95078 12.2018 9.17094 12.2018C9.39109 12.2018 9.6023 12.289 9.75844 12.4442L15.4709 18.1267C15.5695 18.2245 15.6948 18.291 15.8311 18.3176C15.9673 18.3443 16.1085 18.33 16.2366 18.2765C16.3648 18.2229 16.4742 18.1327 16.551 18.017C16.6279 17.9014 16.6687 17.7655 16.6684 17.6267V4.16667C16.6684 3.50363 16.405 2.86774 15.9362 2.3989C15.4674 1.93006 14.8315 1.66667 14.1684 1.66667H4.16677Z" fill="#434343"/>
</svg>
