<svg width="12" height="12" viewBox="0 0 12 12" fill="none" xmlns="http://www.w3.org/2000/svg">
<g clip-path="url(#clip0_640_284)">
<path d="M6 0C2.6915 0 0 2.6915 0 6C0 9.3085 2.6915 12 6 12C9.3085 12 12 9.3085 12 6C12 2.6915 9.3085 0 6 0ZM8 6.5H6C5.724 6.5 5.5 6.2765 5.5 6V3C5.5 2.7235 5.724 2.5 6 2.5C6.276 2.5 6.5 2.7235 6.5 3V5.5H8C8.2765 5.5 8.5 5.7235 8.5 6C8.5 6.2765 8.2765 6.5 8 6.5Z" fill="#3170CE"/>
</g>
<defs>
<clipPath id="clip0_640_284">
<rect width="12" height="12" fill="white"/>
</clipPath>
</defs>
</svg>
