<svg width="400" height="400" viewBox="0 0 400 400" fill="none" xmlns="http://www.w3.org/2000/svg">
<path d="M66.0743 236.734L55.5743 236.957L50.2455 237.046C48.4647 237.084 46.6751 237.076 44.8895 237.09L44.5343 237.094L44.5327 236.734L44.4895 227.782L44.4879 227.381L44.8895 227.382L55.4815 227.433C59.0119 227.437 62.5431 227.523 66.0735 227.564L66.2943 227.566L66.2919 227.782C66.2767 229.302 66.2231 230.812 66.1871 232.306L66.0743 236.734ZM66.0743 236.734L65.9607 232.21C65.9247 230.72 65.8711 229.246 65.8559 227.782L66.0743 228C62.5439 228.041 59.0127 228.127 55.4823 228.131L44.8903 228.182L45.2895 227.782L45.2463 236.734L44.8895 236.378C46.6351 236.392 48.3759 236.384 50.1263 236.422L55.3895 236.511L66.0743 236.734Z" fill="#EBEBEB"/>
<path d="M54.2575 248.021L43.7575 248.244L38.4287 248.334C36.6479 248.371 34.8583 248.363 33.0727 248.378L32.7175 248.38L32.7159 248.021L32.6727 239.069L32.6711 238.667L33.0727 238.669L43.6647 238.719C47.1951 238.723 50.7263 238.81 54.2567 238.85L54.4775 238.853L54.4751 239.069C54.4599 240.588 54.4063 242.098 54.3703 243.592L54.2575 248.021ZM54.2575 248.021L54.1439 243.498C54.1079 242.007 54.0543 240.534 54.0391 239.069L54.2575 239.287C50.7271 239.328 47.1959 239.414 43.6655 239.418L33.0735 239.469L33.4727 239.07L33.4295 248.022L33.0727 247.665C34.8183 247.679 36.5591 247.671 38.3095 247.709L43.5727 247.798L54.2575 248.021Z" fill="#EBEBEB"/>
<path d="M144.853 150.465L134.353 150.688L129.025 150.778C127.244 150.815 125.454 150.807 123.669 150.822L123.313 150.824L123.312 150.465L123.269 141.513L123.267 141.111L123.669 141.113L134.261 141.163C137.791 141.167 141.322 141.254 144.853 141.294L145.073 141.297L145.071 141.513C145.056 143.032 145.002 144.542 144.966 146.036L144.853 150.465ZM144.853 150.465L144.74 145.942C144.704 144.451 144.65 142.978 144.635 141.513L144.853 141.731C141.323 141.772 137.792 141.858 134.261 141.862L123.669 141.913L124.069 141.514L124.025 150.466L123.669 150.109C125.414 150.122 127.155 150.115 128.905 150.153L134.169 150.242L144.853 150.465Z" fill="#CACACA"/>
<path d="M133.037 161.753L122.537 161.976L117.208 162.066C115.427 162.103 113.638 162.095 111.852 162.11L111.497 162.112L111.495 161.753L111.452 152.801L111.45 152.399L111.852 152.401L122.444 152.451C125.974 152.455 129.506 152.542 133.036 152.582L133.257 152.585L133.254 152.801C133.239 154.32 133.186 155.83 133.15 157.324L133.037 161.753ZM133.037 161.753L132.923 157.23C132.887 155.739 132.834 154.266 132.818 152.801L133.037 153.019C129.506 153.06 125.975 153.146 122.445 153.15L111.853 153.201L112.252 152.802L112.209 161.754L111.852 161.397C113.598 161.411 115.338 161.403 117.089 161.441L122.352 161.53L133.037 161.753Z" fill="#CACACA"/>
<path d="M121.266 150.465L110.766 150.688L105.437 150.778C103.656 150.815 101.866 150.807 100.081 150.822L99.7256 150.824L99.724 150.465L99.6808 141.513L99.6792 141.111L100.081 141.113L110.673 141.163C114.203 141.167 117.734 141.254 121.265 141.294L121.486 141.297L121.483 141.513C121.468 143.032 121.414 144.542 121.378 146.036L121.266 150.465ZM121.266 150.465L121.152 145.942C121.116 144.451 121.062 142.978 121.047 141.513L121.266 141.731C117.735 141.772 114.204 141.858 110.674 141.862L100.082 141.913L100.481 141.514L100.438 150.466L100.081 150.109C101.826 150.122 103.567 150.115 105.318 150.153L110.581 150.242L121.266 150.465Z" fill="#CACACA"/>
<path d="M329.894 126.402L319.394 126.625L314.066 126.714C312.285 126.752 310.495 126.744 308.71 126.758L308.354 126.762L308.353 126.402L308.31 117.45L308.308 117.049L308.71 117.05L319.302 117.101C322.832 117.105 326.363 117.19 329.894 117.232L330.114 117.234L330.112 117.45C330.097 118.97 330.043 120.48 330.007 121.974L329.894 126.402ZM329.894 126.402L329.781 121.878C329.745 120.388 329.691 118.914 329.676 117.45L329.894 117.668C326.364 117.709 322.833 117.795 319.302 117.799L308.71 117.85L309.11 117.45L309.066 126.402L308.71 126.046C310.455 126.06 312.196 126.052 313.946 126.09L319.21 126.179L329.894 126.402Z" fill="#CACACA"/>
<path d="M366.927 248.021L356.427 248.244L351.098 248.334C349.318 248.371 347.528 248.363 345.742 248.378L345.387 248.38L345.386 248.021L345.342 239.069L345.341 238.667L345.742 238.669L356.334 238.719C359.865 238.723 363.396 238.81 366.926 238.85L367.147 238.853L367.145 239.069C367.13 240.588 367.076 242.098 367.04 243.592L366.927 248.021ZM366.927 248.021L366.814 243.498C366.778 242.007 366.724 240.534 366.709 239.069L366.927 239.287C363.397 239.328 359.866 239.414 356.335 239.418L345.743 239.469L346.142 239.07L346.099 248.022L345.742 247.665C347.488 247.679 349.229 247.671 350.979 247.709L356.242 247.798L366.927 248.021Z" fill="#CACACA"/>
<path d="M355.11 45.5328L344.61 45.756L339.281 45.8456C337.5 45.8832 335.71 45.8752 333.925 45.8896L333.57 45.8928L333.568 45.5336L333.525 36.5816L333.523 36.18L333.925 36.1816L344.517 36.232C348.047 36.236 351.578 36.3216 355.109 36.3632L355.33 36.3656L355.327 36.5816C355.312 38.1008 355.258 39.6112 355.222 41.1048L355.11 45.5328ZM355.11 45.5328L354.996 41.0096C354.96 39.5192 354.906 38.0456 354.891 36.5808L355.11 36.7992C351.579 36.84 348.048 36.9264 344.518 36.9304L333.926 36.9808L334.325 36.5816L334.282 45.5336L333.925 45.1768C335.67 45.1912 337.411 45.1832 339.162 45.2208L344.425 45.3104L355.11 45.5328Z" fill="#CACACA"/>
<path d="M366.927 56.82L356.427 57.0432L351.098 57.1328C349.318 57.1704 347.528 57.1624 345.742 57.1768L345.387 57.18L345.386 56.8208L345.342 47.8688L345.341 47.4672L345.742 47.4688L356.334 47.5192C359.865 47.5232 363.396 47.6088 366.926 47.6504L367.147 47.6528L367.145 47.8688C367.13 49.388 367.076 50.8984 367.04 52.392L366.927 56.82ZM366.927 56.82L366.814 52.2968C366.778 50.8064 366.724 49.3328 366.709 47.868L366.927 48.0864C363.397 48.1272 359.866 48.2136 356.335 48.2176L345.743 48.268L346.142 47.8688L346.099 56.8208L345.742 56.464C347.488 56.4784 349.229 56.4704 350.979 56.508L356.242 56.5976L366.927 56.82Z" fill="#CACACA"/>
<path d="M66.0743 45.5328L55.5743 45.756L50.2455 45.8456C48.4647 45.8832 46.6751 45.8752 44.8895 45.8896L44.5343 45.8928L44.5327 45.5336L44.4895 36.5816L44.4879 36.18L44.8895 36.1816L55.4815 36.232C59.0119 36.236 62.5431 36.3216 66.0735 36.3632L66.2943 36.3656L66.2919 36.5816C66.2767 38.1008 66.2231 39.6112 66.1871 41.1048L66.0743 45.5328ZM66.0743 45.5328L65.9607 41.0096C65.9247 39.5192 65.8711 38.0456 65.8559 36.5808L66.0743 36.7992C62.5439 36.84 59.0127 36.9264 55.4823 36.9304L44.8903 36.9808L45.2895 36.5816L45.2463 45.5336L44.8895 45.1768C46.6351 45.1912 48.3759 45.1832 50.1263 45.2208L55.3895 45.3104L66.0743 45.5328Z" fill="#CACACA"/>
<path d="M96.4831 54.2168H48.3607V112.589H96.4831V54.2168Z" fill="#D7D7D7"/>
<path d="M90.9847 59.544H53.8599V107.261H90.9847V59.544Z" fill="white"/>
<path d="M55.3087 59.544H53.8599V107.261H55.3087V59.544Z" fill="#D3D3D3"/>
<path d="M97.932 54.2168H96.4832V112.589H97.932V54.2168Z" fill="#B7B7B9"/>
<path d="M73.7506 96.1577V71.0777H81.5045V96.1577H73.7506Z" fill="#B5C5E0" stroke="#B5C5E0"/>
<path d="M62.4816 78.9001H85.8232V66.1225H62.4816V78.9001Z" stroke="#B5C5E0" stroke-miterlimit="10"/>
<path d="M238.752 86.2168H190.63V144.589H238.752V86.2168Z" fill="#D7D7D7"/>
<path d="M233.253 91.544H196.128V139.261H233.253V91.544Z" fill="white"/>
<path d="M197.577 91.544H196.128V139.261H197.577V91.544Z" fill="#D3D3D3"/>
<path d="M240.201 86.2168H238.752V144.589H240.201V86.2168Z" fill="#B7B7B9"/>
<path d="M216.823 103.078V128.158H209.07V103.078H216.823Z" fill="#B5C5E0" stroke="#B5C5E0"/>
<path d="M228.092 98.1224H204.75V110.9H228.092V98.1224Z" stroke="#B5C5E0" stroke-miterlimit="10"/>
<path d="M167.618 70.2168H119.495V128.589H167.618V70.2168Z" fill="#D7D7D7"/>
<path d="M162.119 75.544H124.994V123.261H162.119V75.544Z" fill="white"/>
<path d="M126.443 75.544H124.994V123.261H126.443V75.544Z" fill="#D3D3D3"/>
<path d="M169.066 70.2168H167.618V128.589H169.066V70.2168Z" fill="#B7B7B9"/>
<path d="M147.461 87.8784H139.962V106.84H147.461V87.8784Z" fill="#B5C5E0"/>
<path d="M155.358 99.4024H135.211V112.474H155.358V99.4024Z" stroke="#B5C5E0" stroke-miterlimit="10"/>
<path d="M117.407 279.743H83.66L64.3448 183.45L95.244 169.254L117.407 279.743Z" fill="#7AA1DB"/>
<path d="M208.499 279.743H117.407L95.244 169.254H186.336L208.499 279.743Z" fill="#8DB6F4"/>
<path d="M100.081 228.079H48.3608V334.201H100.081V228.079Z" fill="#7AA1DB"/>
<path d="M233.322 334.201H219.191L198.136 228.079H233.322V334.201Z" fill="#5B5B5B"/>
<path d="M128.498 228.079H100.081V334.201H128.498V228.079Z" fill="#8DB6F4"/>
<path d="M261.739 228.079H233.322V334.201H261.739V228.079Z" fill="#8DB6F4"/>
<path d="M233.322 279.743H128.499V334.201H233.322V279.743Z" fill="#8DB6F4"/>
<path d="M233.322 256.2H128.499V279.964H233.322V256.2Z" fill="#8DB6F4"/>
<path d="M107.044 228.079L117.771 227.887L128.498 227.754L128.821 227.75L128.824 228.079L128.945 240.498L128.989 252.918C129.022 261.197 129.048 269.477 129.001 277.756C128.975 286.035 128.962 294.314 128.858 302.594C128.79 310.874 128.674 319.153 128.498 327.433C128.323 319.154 128.208 310.874 128.138 302.594C128.035 294.315 128.022 286.035 127.996 277.756C127.949 269.477 127.974 261.197 128.008 252.918L128.052 240.498L128.173 228.079L128.498 228.405L117.771 228.271L107.044 228.079Z" fill="#7AA1DB"/>
<path d="M233.322 228.079C233.543 236.39 233.647 244.699 233.732 253.01L233.857 277.94L233.734 302.87L233.584 315.335L233.322 327.801L233.059 315.335L232.91 302.87L232.786 277.94L232.911 253.01C232.997 244.699 233.101 236.389 233.322 228.079Z" fill="#7AA1DB"/>
<path d="M233.322 279.743C224.128 279.964 214.934 280.068 205.741 280.154L178.161 280.278L156.08 280.155L142.29 280.006L128.499 279.743L142.29 279.481L156.08 279.331L178.161 279.208L205.741 279.333C214.934 279.418 224.128 279.522 233.322 279.743Z" fill="#7AA1DB"/>
<path d="M233.322 256.2C224.128 256.422 214.934 256.525 205.741 256.61L178.161 256.735L156.08 256.612L142.29 256.462L128.499 256.2L142.29 255.938L156.08 255.788L178.161 255.665L205.741 255.79C214.934 255.876 224.128 255.979 233.322 256.2Z" fill="#7AA1DB"/>
<path d="M68.0161 334.2L67.3161 342.797L65.6833 362.662H58.1945L56.5609 342.797L55.8617 334.2H68.0161Z" fill="#556886"/>
<path d="M55.8617 334.2H68.0161L67.3161 342.797H56.5609L55.8617 334.2Z" fill="#263853"/>
<path d="M120.368 334.2L119.668 342.797L118.035 362.662H110.546L108.913 342.797L108.213 334.2H120.368Z" fill="#556886"/>
<path d="M108.213 334.2H120.368L119.668 342.797H108.913L108.213 334.2Z" fill="#263853"/>
<path d="M201.701 334.2L201.002 342.797L199.368 362.662H191.879L190.246 342.797L189.546 334.2H201.701Z" fill="#556886"/>
<path d="M189.546 334.2H201.701L201.002 342.797H190.246L189.546 334.2Z" fill="#A6A6A6"/>
<path d="M254.064 334.2L253.365 342.797L251.731 362.662H244.242L242.61 342.797L241.91 334.2H254.064Z" fill="#556886"/>
<path d="M254.064 334.2L253.365 342.797H242.61L241.91 334.2H254.064Z" fill="#263853"/>
<path d="M31.356 362.662L73.5176 362.467L115.678 362.397L200 362.262L284.322 362.396L326.482 362.466L368.644 362.662L326.482 362.858L284.322 362.928L200 363.061L115.678 362.927L73.5176 362.856L31.356 362.662Z" fill="#263238"/>
<path d="M269.581 296.527C267.442 296.302 213.054 271.15 211.629 268.94C211.454 268.685 216.702 256.967 216.702 256.967C216.893 232.56 216.326 210.185 216.326 210.185L254.548 227.315L253.769 267.104C253.769 267.104 259.946 274.143 264.966 280.126C264.97 280.137 264.978 280.141 264.975 280.149C268.066 283.829 270.722 287.107 271.223 288.096C272.523 290.679 271.716 296.761 269.581 296.527Z" fill="#FFBF9D"/>
<path d="M269.866 296.982C267.676 296.759 212.1 271.088 210.636 268.825C210.46 268.567 213.13 263.686 215.817 256.594C216.169 255.666 215.868 249.35 216.384 242.863L254.467 258.382L253.69 266.934C253.69 266.934 260.006 274.118 265.135 280.228C265.141 280.239 265.15 280.242 265.146 280.25C268.306 284.012 271.026 287.36 271.535 288.366C272.87 291.01 272.051 297.221 269.866 296.982Z" fill="#FFC727"/>
<path opacity="0.2" d="M221.329 270.722C221.698 270.015 221.973 269.262 222.159 268.487C222.533 266.938 222.577 265.316 222.203 263.763C221.825 262.188 221.049 260.758 219.954 259.565C218.853 258.365 217.483 257.567 216.005 256.919C215.924 256.884 215.875 257.015 215.958 257.05C218.734 258.204 220.787 261.184 221.345 264.082C221.619 265.506 221.568 267.005 221.185 268.405C220.997 269.091 220.735 269.756 220.411 270.389C220.25 270.705 220.066 271.01 219.869 271.304C219.667 271.603 219.459 271.804 219.514 272.184C219.542 272.374 219.726 272.478 219.905 272.462C220.563 272.399 221.059 271.238 221.329 270.722Z" fill="black"/>
<path opacity="0.2" d="M267.662 284.615C266.58 283.579 265.054 283.116 263.598 282.911C262.042 282.693 260.454 282.698 258.894 282.871C257.369 283.039 255.83 283.39 254.394 283.934C253.69 284.2 252.998 284.503 252.329 284.848C251.682 285.181 250.905 285.555 250.39 286.077C250.298 286.17 250.39 286.341 250.521 286.302C251.156 286.114 251.766 285.738 252.379 285.481C253.075 285.189 253.782 284.927 254.505 284.706C255.916 284.275 257.338 283.961 258.806 283.794C261.745 283.458 264.654 283.698 267.29 285.106C267.594 285.269 267.922 284.864 267.662 284.615Z" fill="black"/>
<path opacity="0.2" d="M252.56 263.821C243.468 260.226 220.149 250.944 217.599 249.858C217.514 249.822 217.474 249.952 217.554 249.991C226.359 254.27 249.778 263.375 252.43 264.201C252.677 264.278 252.8 263.916 252.56 263.821Z" fill="black"/>
<path opacity="0.2" d="M219.077 248.611C219.124 248.567 219.168 248.53 219.196 248.47C219.225 248.409 219.246 248.343 219.27 248.281C219.317 248.161 219.362 248.041 219.406 247.92C219.501 247.664 219.59 247.407 219.666 247.145C219.815 246.635 219.942 246.12 220.057 245.602C220.073 245.529 219.954 245.494 219.931 245.565C219.765 246.065 219.58 246.558 219.387 247.048C219.294 247.286 219.204 247.527 219.112 247.767C219.063 247.894 219.014 248.021 218.963 248.147C218.911 248.276 218.862 248.381 218.87 248.522C218.877 248.614 219.006 248.678 219.077 248.611Z" fill="black"/>
<path opacity="0.2" d="M222.373 250.017C222.42 249.973 222.464 249.935 222.492 249.876C222.521 249.814 222.542 249.749 222.566 249.686C222.613 249.566 222.658 249.446 222.702 249.326C222.797 249.07 222.886 248.813 222.962 248.55C223.111 248.041 223.238 247.526 223.353 247.007C223.369 246.935 223.25 246.899 223.227 246.97C223.061 247.47 222.876 247.963 222.683 248.454C222.59 248.693 222.5 248.933 222.409 249.173C222.36 249.3 222.31 249.426 222.26 249.553C222.208 249.682 222.159 249.786 222.167 249.928C222.173 250.02 222.301 250.083 222.373 250.017Z" fill="black"/>
<path opacity="0.2" d="M225.668 251.422C225.715 251.378 225.759 251.341 225.787 251.282C225.816 251.22 225.838 251.154 225.862 251.091C225.908 250.971 225.954 250.851 225.998 250.73C226.092 250.474 226.181 250.218 226.258 249.955C226.406 249.446 226.533 248.93 226.648 248.412C226.664 248.34 226.546 248.304 226.522 248.375C226.356 248.875 226.171 249.368 225.978 249.858C225.885 250.098 225.795 250.338 225.704 250.578C225.655 250.705 225.606 250.831 225.555 250.958C225.503 251.086 225.454 251.191 225.462 251.333C225.468 251.425 225.596 251.489 225.668 251.422Z" fill="black"/>
<path opacity="0.2" d="M228.963 252.828C229.011 252.784 229.055 252.746 229.083 252.687C229.111 252.626 229.133 252.56 229.157 252.498C229.203 252.378 229.249 252.258 229.293 252.137C229.387 251.881 229.476 251.624 229.553 251.362C229.702 250.852 229.828 250.337 229.943 249.818C229.959 249.746 229.842 249.71 229.818 249.782C229.651 250.282 229.467 250.774 229.274 251.265C229.18 251.504 229.091 251.744 228.999 251.984C228.951 252.111 228.901 252.238 228.85 252.364C228.798 252.493 228.75 252.598 228.758 252.739C228.763 252.83 228.891 252.894 228.963 252.828Z" fill="black"/>
<path opacity="0.2" d="M232.258 254.234C232.306 254.19 232.35 254.152 232.378 254.093C232.406 254.031 232.428 253.966 232.452 253.903C232.498 253.783 232.544 253.663 232.588 253.542C232.682 253.286 232.771 253.03 232.848 252.767C232.997 252.258 233.123 251.742 233.238 251.224C233.254 251.152 233.137 251.116 233.113 251.187C232.946 251.687 232.762 252.18 232.569 252.67C232.475 252.91 232.386 253.15 232.294 253.39C232.246 253.517 232.196 253.643 232.146 253.77C232.094 253.898 232.045 254.003 232.053 254.145C232.058 254.236 232.187 254.3 232.258 254.234Z" fill="black"/>
<path opacity="0.2" d="M235.554 255.639C235.602 255.595 235.646 255.558 235.674 255.498C235.702 255.437 235.724 255.371 235.748 255.309C235.794 255.189 235.84 255.069 235.884 254.948C235.978 254.692 236.067 254.435 236.144 254.173C236.293 253.663 236.419 253.148 236.534 252.63C236.55 252.557 236.433 252.522 236.409 252.593C236.242 253.093 236.058 253.586 235.865 254.076C235.771 254.315 235.682 254.555 235.59 254.795C235.541 254.922 235.491 255.049 235.441 255.175C235.389 255.304 235.34 255.409 235.348 255.55C235.354 255.642 235.482 255.706 235.554 255.639Z" fill="black"/>
<path opacity="0.2" d="M238.85 257.045C238.897 257.001 238.941 256.963 238.969 256.904C238.998 256.842 239.019 256.777 239.043 256.714C239.09 256.594 239.135 256.474 239.179 256.354C239.274 256.098 239.362 255.841 239.439 255.578C239.588 255.069 239.714 254.554 239.83 254.035C239.846 253.963 239.727 253.927 239.704 253.998C239.538 254.498 239.353 254.991 239.16 255.482C239.066 255.721 238.977 255.961 238.886 256.201C238.837 256.328 238.787 256.454 238.737 256.581C238.685 256.71 238.636 256.814 238.644 256.956C238.65 257.047 238.778 257.11 238.85 257.045Z" fill="black"/>
<path opacity="0.2" d="M242.145 258.45C242.192 258.406 242.236 258.369 242.264 258.31C242.293 258.248 242.314 258.182 242.338 258.119C242.385 257.999 242.43 257.879 242.474 257.758C242.569 257.502 242.658 257.246 242.734 256.983C242.882 256.474 243.009 255.958 243.124 255.44C243.14 255.367 243.022 255.332 242.998 255.403C242.832 255.903 242.647 256.396 242.454 256.886C242.361 257.126 242.271 257.366 242.18 257.606C242.131 257.733 242.082 257.859 242.031 257.986C241.979 258.114 241.93 258.219 241.938 258.361C241.945 258.453 242.073 258.516 242.145 258.45Z" fill="black"/>
<path opacity="0.2" d="M245.44 259.855C245.487 259.811 245.531 259.774 245.559 259.714C245.588 259.653 245.61 259.587 245.634 259.525C245.68 259.405 245.726 259.285 245.77 259.164C245.864 258.908 245.953 258.651 246.03 258.389C246.178 257.879 246.305 257.364 246.42 256.846C246.436 256.774 246.319 256.738 246.295 256.809C246.128 257.308 245.943 257.802 245.75 258.292C245.657 258.531 245.567 258.771 245.476 259.011C245.427 259.138 245.378 259.265 245.327 259.391C245.275 259.52 245.227 259.625 245.235 259.766C245.24 259.858 245.368 259.922 245.44 259.855Z" fill="black"/>
<path opacity="0.2" d="M248.735 261.261C248.782 261.217 248.826 261.179 248.854 261.12C248.883 261.058 248.905 260.993 248.929 260.93C248.975 260.81 249.021 260.69 249.065 260.569C249.159 260.313 249.248 260.056 249.325 259.794C249.474 259.284 249.6 258.769 249.715 258.25C249.731 258.178 249.614 258.142 249.59 258.214C249.423 258.714 249.238 259.206 249.046 259.697C248.952 259.936 248.862 260.176 248.771 260.416C248.722 260.543 248.673 260.67 248.622 260.796C248.57 260.925 248.522 261.03 248.53 261.171C248.535 261.264 248.664 261.327 248.735 261.261Z" fill="black"/>
<path opacity="0.2" d="M252.031 262.666C252.078 262.622 252.122 262.585 252.15 262.526C252.179 262.464 252.201 262.398 252.225 262.335C252.271 262.215 252.317 262.095 252.361 261.974C252.455 261.718 252.544 261.462 252.621 261.199C252.77 260.69 252.896 260.174 253.011 259.656C253.027 259.583 252.909 259.548 252.886 259.619C252.719 260.119 252.534 260.612 252.342 261.102C252.248 261.342 252.158 261.582 252.066 261.822C252.018 261.949 251.968 262.075 251.918 262.202C251.866 262.33 251.817 262.435 251.825 262.577C251.83 262.67 251.959 262.733 252.031 262.666Z" fill="black"/>
<path d="M215.807 242.986L255.908 255.848C255.908 255.848 255.298 204.115 254.246 186.322C253.428 172.478 236.811 163.571 222.189 172.412C202.654 184.223 193.735 190.801 184.407 197.344L182.643 195.748L157.92 195.258C157.92 195.258 155.862 224.499 187.925 234.215C199.514 237.727 215.131 225.43 215.146 225.842C215.198 227.319 215.807 242.986 215.807 242.986Z" fill="#29292C"/>
<path d="M215.302 226.023C215.318 223.324 215.636 220.609 215.798 217.914C215.956 215.309 216.106 212.702 216.27 210.098C216.605 204.832 216.862 199.556 217.262 194.296C217.486 191.343 217.807 188.4 218.11 185.454C218.117 185.384 218.011 185.364 217.999 185.436C217.554 188.14 217.142 190.851 216.774 193.567C216.764 193.062 216.756 192.558 216.732 192.058C216.665 190.69 216.572 189.326 216.476 187.96C216.472 187.907 216.393 187.915 216.394 187.967C216.439 189.314 216.485 190.658 216.558 192.003C216.594 192.672 216.661 193.35 216.714 194.026C215.694 201.638 215.02 209.291 214.962 216.978C214.94 220 215.172 223.02 215.153 226.038C215.153 226.133 215.301 226.118 215.302 226.023Z" fill="#5B5B5B"/>
<path d="M219.931 236.77C219.511 233.102 219.398 222.578 219.305 218.914C219.118 211.501 219.254 204.099 219.585 196.693C219.772 192.509 220.072 188.342 220.395 184.166C220.397 184.138 220.355 184.13 220.351 184.158C219.352 191.473 218.822 198.86 218.564 206.235C218.307 213.621 219.067 234.238 219.783 236.783C219.81 236.875 219.943 236.865 219.931 236.77Z" fill="#5B5B5B"/>
<path d="M215.519 187.527C209.456 191.67 203.343 195.739 197.27 199.868C194.202 201.954 191.134 204.042 188.078 206.146C186.639 207.137 185.216 208.154 183.757 209.115C182.377 210.023 180.963 210.64 179.292 210.709C177.454 210.786 175.603 210.339 173.806 210.02C171.729 209.65 169.642 209.326 167.572 208.922C167.478 208.904 167.454 209.05 167.547 209.07C169.388 209.442 171.214 209.882 173.047 210.29C174.712 210.661 176.39 211.109 178.087 211.298C179.625 211.469 181.102 211.321 182.513 210.658C184.026 209.948 185.37 208.902 186.734 207.95C192.884 203.657 199.01 199.328 205.119 194.976C208.592 192.502 212.054 190.012 215.541 187.559C215.559 187.544 215.539 187.514 215.519 187.527Z" fill="#5B5B5B"/>
<path d="M217.558 237.332C219.995 238.034 222.379 238.977 224.776 239.806C227.18 240.637 229.584 241.466 231.99 242.293C236.788 243.942 253.343 249.114 254.691 249.305C254.777 249.317 254.811 249.185 254.739 249.146C253.658 248.567 242.947 244.918 240.529 244.13C235.693 242.557 230.82 241.134 225.953 239.662C224.563 239.242 223.165 238.851 221.771 238.442C220.381 238.035 218.965 237.675 217.596 237.201C217.513 237.172 217.472 237.307 217.558 237.332Z" fill="#5B5B5B"/>
<path d="M208.987 381.3C206.786 381.287 149.017 361.026 147.344 358.914C147.144 358.674 148.925 353.436 151.337 346.245C152.748 342.022 154.862 336.899 157.177 331.677C163.334 317.804 170.972 303.252 170.972 303.252L208.518 318.053L194.742 344.036L190.023 352.93C190.023 352.93 196.994 359.479 202.682 365.074C202.689 365.084 202.698 365.086 202.696 365.094C206.199 368.538 209.226 371.612 209.829 372.566C211.41 375.07 211.185 381.33 208.987 381.3Z" fill="#FFBF9D"/>
<path d="M208.987 381.3C206.786 381.287 149.017 361.026 147.344 358.914C147.144 358.674 148.925 353.436 151.337 346.245C152.748 342.022 154.862 336.899 157.177 331.677L193.65 346.094L190.023 352.929C190.023 352.929 196.994 359.478 202.682 365.073C202.689 365.083 202.698 365.085 202.696 365.094C206.199 368.538 209.226 371.611 209.829 372.565C211.41 375.07 211.185 381.33 208.987 381.3Z" fill="#FFC727"/>
<path opacity="0.2" d="M158.17 359.783C158.47 359.044 158.671 358.269 158.783 357.479C159.007 355.902 158.897 354.283 158.377 352.772C157.85 351.24 156.941 349.89 155.738 348.806C154.527 347.717 153.089 347.053 151.555 346.549C151.471 346.521 151.435 346.656 151.521 346.682C154.394 347.567 156.722 350.338 157.554 353.17C157.962 354.562 158.054 356.058 157.806 357.488C157.685 358.189 157.487 358.876 157.226 359.537C157.095 359.866 156.942 360.188 156.773 360.499C156.601 360.817 156.413 361.036 156.504 361.409C156.55 361.596 156.742 361.682 156.919 361.648C157.567 361.526 157.95 360.323 158.17 359.783Z" fill="black"/>
<path opacity="0.2" d="M205.616 369.199C204.44 368.271 202.878 367.955 201.407 367.89C199.838 367.821 198.257 367.978 196.721 368.298C195.219 368.611 193.72 369.106 192.342 369.785C191.667 370.118 191.007 370.485 190.374 370.892C189.762 371.285 189.024 371.731 188.562 372.3C188.479 372.402 188.586 372.563 188.713 372.512C189.327 372.264 189.898 371.832 190.485 371.517C191.15 371.16 191.83 370.832 192.527 370.544C193.891 369.98 195.277 369.532 196.721 369.226C199.614 368.611 202.534 368.574 205.291 369.725C205.61 369.857 205.898 369.422 205.616 369.199Z" fill="black"/>
<path opacity="0.2" d="M190.539 351.34C181.441 347.759 158.107 338.514 155.555 337.432C155.471 337.396 155.431 337.526 155.511 337.566C164.323 341.831 187.756 350.899 190.409 351.721C190.657 351.796 190.779 351.434 190.539 351.34Z" fill="black"/>
<path opacity="0.2" d="M157.032 336.182C157.079 336.138 157.123 336.101 157.151 336.042C157.18 335.98 157.202 335.914 157.226 335.851C157.272 335.731 157.317 335.611 157.361 335.49C157.455 335.234 157.543 334.977 157.619 334.715C157.767 334.205 157.893 333.69 158.007 333.171C158.023 333.099 157.905 333.063 157.882 333.135C157.716 333.635 157.532 334.129 157.34 334.619C157.246 334.858 157.158 335.098 157.066 335.338C157.018 335.466 156.969 335.592 156.918 335.718C156.867 335.847 156.818 335.953 156.826 336.094C156.832 336.186 156.961 336.249 157.032 336.182Z" fill="black"/>
<path opacity="0.2" d="M160.33 337.583C160.377 337.539 160.421 337.502 160.448 337.442C160.477 337.38 160.498 337.314 160.522 337.251C160.569 337.131 160.614 337.011 160.658 336.89C160.752 336.634 160.84 336.377 160.916 336.115C161.064 335.605 161.19 335.09 161.304 334.571C161.32 334.499 161.202 334.463 161.179 334.535C161.013 335.035 160.829 335.529 160.637 336.019C160.543 336.258 160.454 336.499 160.363 336.738C160.315 336.866 160.266 336.992 160.215 337.118C160.164 337.247 160.115 337.352 160.123 337.494C160.13 337.586 160.258 337.65 160.33 337.583Z" fill="black"/>
<path opacity="0.2" d="M163.627 338.983C163.674 338.939 163.718 338.902 163.746 338.842C163.775 338.781 163.797 338.715 163.821 338.652C163.867 338.532 163.912 338.412 163.957 338.291C164.051 338.035 164.139 337.778 164.215 337.516C164.363 337.006 164.489 336.49 164.603 335.972C164.619 335.899 164.501 335.864 164.478 335.936C164.312 336.436 164.128 336.93 163.936 337.42C163.842 337.659 163.754 337.9 163.662 338.139C163.614 338.266 163.565 338.393 163.514 338.519C163.463 338.648 163.414 338.753 163.422 338.894C163.427 338.986 163.555 339.05 163.627 338.983Z" fill="black"/>
<path opacity="0.2" d="M166.925 340.384C166.972 340.34 167.016 340.302 167.044 340.243C167.073 340.182 167.094 340.116 167.118 340.053C167.165 339.933 167.21 339.813 167.254 339.692C167.348 339.436 167.436 339.179 167.512 338.917C167.66 338.407 167.786 337.891 167.9 337.373C167.916 337.3 167.798 337.265 167.774 337.337C167.609 337.837 167.425 338.33 167.233 338.821C167.139 339.06 167.05 339.3 166.959 339.54C166.911 339.667 166.862 339.794 166.811 339.92C166.76 340.049 166.71 340.154 166.719 340.295C166.725 340.387 166.853 340.45 166.925 340.384Z" fill="black"/>
<path opacity="0.2" d="M170.222 341.784C170.27 341.74 170.314 341.702 170.342 341.643C170.37 341.582 170.392 341.516 170.416 341.453C170.462 341.333 170.507 341.213 170.551 341.092C170.646 340.835 170.734 340.578 170.81 340.317C170.958 339.806 171.083 339.291 171.198 338.773C171.214 338.701 171.095 338.665 171.072 338.737C170.906 339.237 170.722 339.73 170.53 340.221C170.437 340.46 170.348 340.701 170.257 340.94C170.209 341.067 170.159 341.194 170.109 341.32C170.058 341.449 170.008 341.554 170.017 341.695C170.022 341.787 170.15 341.85 170.222 341.784Z" fill="black"/>
<path opacity="0.2" d="M173.52 343.185C173.567 343.141 173.611 343.103 173.639 343.044C173.668 342.982 173.69 342.917 173.714 342.854C173.76 342.734 173.805 342.614 173.849 342.493C173.943 342.237 174.031 341.979 174.107 341.718C174.255 341.207 174.381 340.692 174.495 340.174C174.511 340.101 174.393 340.066 174.37 340.138C174.204 340.638 174.02 341.131 173.828 341.622C173.734 341.861 173.646 342.102 173.554 342.342C173.506 342.469 173.457 342.595 173.406 342.722C173.355 342.85 173.306 342.955 173.314 343.097C173.32 343.187 173.448 343.251 173.52 343.185Z" fill="black"/>
<path opacity="0.2" d="M176.818 344.585C176.865 344.541 176.909 344.503 176.936 344.443C176.965 344.382 176.986 344.316 177.01 344.253C177.057 344.133 177.102 344.013 177.146 343.892C177.24 343.636 177.328 343.379 177.404 343.117C177.552 342.606 177.678 342.091 177.792 341.573C177.808 341.501 177.69 341.465 177.666 341.537C177.501 342.037 177.317 342.53 177.125 343.021C177.031 343.26 176.942 343.501 176.851 343.74C176.803 343.867 176.754 343.994 176.703 344.12C176.652 344.249 176.602 344.354 176.611 344.495C176.618 344.588 176.746 344.651 176.818 344.585Z" fill="black"/>
<path opacity="0.2" d="M180.115 345.986C180.163 345.942 180.207 345.904 180.234 345.845C180.263 345.783 180.284 345.718 180.308 345.654C180.355 345.534 180.399 345.414 180.444 345.294C180.539 345.038 180.627 344.78 180.703 344.518C180.851 344.008 180.976 343.493 181.091 342.974C181.107 342.902 180.988 342.866 180.965 342.938C180.799 343.438 180.615 343.932 180.423 344.422C180.33 344.662 180.241 344.902 180.15 345.142C180.102 345.27 180.052 345.396 180.002 345.522C179.951 345.651 179.901 345.756 179.91 345.898C179.915 345.989 180.043 346.052 180.115 345.986Z" fill="black"/>
<path opacity="0.2" d="M183.413 347.386C183.46 347.342 183.504 347.304 183.532 347.245C183.56 347.183 183.582 347.118 183.607 347.054C183.653 346.934 183.698 346.814 183.742 346.694C183.836 346.438 183.924 346.18 184 345.918C184.148 345.408 184.274 344.893 184.388 344.374C184.404 344.302 184.286 344.266 184.263 344.338C184.097 344.838 183.913 345.332 183.721 345.822C183.627 346.062 183.539 346.302 183.447 346.542C183.399 346.669 183.35 346.795 183.299 346.922C183.248 347.05 183.199 347.155 183.207 347.297C183.213 347.389 183.341 347.452 183.413 347.386Z" fill="black"/>
<path opacity="0.2" d="M186.71 348.786C186.758 348.742 186.802 348.705 186.83 348.646C186.858 348.584 186.88 348.518 186.904 348.455C186.95 348.335 186.995 348.215 187.039 348.094C187.134 347.838 187.222 347.582 187.298 347.319C187.446 346.809 187.571 346.294 187.686 345.775C187.702 345.703 187.583 345.667 187.56 345.739C187.394 346.239 187.21 346.733 187.018 347.223C186.925 347.462 186.836 347.702 186.745 347.942C186.697 348.07 186.647 348.196 186.597 348.322C186.546 348.451 186.496 348.556 186.505 348.698C186.51 348.79 186.638 348.853 186.71 348.786Z" fill="black"/>
<path opacity="0.2" d="M190.008 350.186C190.055 350.142 190.099 350.105 190.127 350.046C190.156 349.984 190.178 349.918 190.202 349.855C190.248 349.735 190.293 349.615 190.337 349.494C190.431 349.238 190.519 348.981 190.595 348.719C190.743 348.209 190.869 347.694 190.983 347.175C190.999 347.102 190.881 347.067 190.858 347.139C190.692 347.639 190.508 348.133 190.316 348.623C190.222 348.862 190.134 349.103 190.042 349.343C189.994 349.47 189.945 349.597 189.894 349.723C189.843 349.852 189.794 349.957 189.802 350.098C189.807 350.19 189.936 350.253 190.008 350.186Z" fill="black"/>
<path d="M198.84 344.83L156.59 327.958C156.59 327.958 182.718 269.719 182.175 268.586C180.28 264.655 143.121 256.518 132.377 240.054C120.999 222.626 138.512 194.808 138.512 194.808L174.792 195.647C174.792 195.647 171.647 216.891 172.986 218.576C173.866 219.697 221.794 238.694 227.633 250.97C236.558 269.735 198.84 344.83 198.84 344.83Z" fill="#29292C"/>
<path d="M229.787 257.516C229.482 255.567 228.898 253.69 227.984 251.939C226.988 250.033 225.604 248.361 224.08 246.854C220.882 243.693 217.101 241.049 213.374 238.556C209.506 235.969 205.481 233.615 201.361 231.451C197.178 229.254 192.9 227.237 188.587 225.308C184.289 223.386 179.921 221.656 175.574 219.852C174.89 219.569 174.206 219.288 173.522 219.007C176.055 218.575 178.58 218.094 181.11 217.626C181.257 217.599 181.242 217.395 181.09 217.394C176.176 217.371 171.317 218.031 166.725 219.85C166.654 219.878 166.674 219.991 166.754 219.982C168.917 219.746 171.063 219.42 173.204 219.058C177.121 220.791 181.01 222.577 184.904 224.36C189.112 226.286 193.297 228.274 197.389 230.438C205.5 234.726 213.475 239.438 220.572 245.29C223.788 247.942 226.706 251.016 227.963 255.083C229.13 258.858 228.857 262.914 228.132 266.746C227.318 271.045 225.958 275.237 224.668 279.41C223.202 284.151 221.666 288.87 220.05 293.561C218.435 298.25 209.318 322.334 208.708 323.326C208.621 323.467 208.85 323.618 208.951 323.486C209.67 322.566 223.642 287.79 225.123 282.983C226.489 278.552 227.892 274.099 228.93 269.578C229.832 265.656 230.415 261.528 229.787 257.516Z" fill="#5B5B5B"/>
<path d="M188.592 264.47C187.484 263.794 186.106 263.436 184.899 262.972L180.725 261.366C177.979 260.31 175.234 259.254 172.49 258.197C167.215 256.166 161.91 254.2 156.673 252.078C147.741 248.458 138.29 243.317 134.75 233.734C133.932 231.518 133.546 229.188 133.621 226.826C133.711 223.97 134.281 221.106 134.835 218.309C135.961 212.633 137.538 207.04 139.542 201.612C140.034 200.279 140.576 198.966 141.134 197.66C141.169 197.579 141.046 197.518 141.011 197.6C138.793 202.846 136.89 208.218 135.463 213.734C134.751 216.485 134.147 219.264 133.654 222.062C133.203 224.624 132.872 227.235 133.197 229.834C134.378 239.291 142.297 245.947 150.333 249.942C155.282 252.402 160.531 254.238 165.686 256.211C171.106 258.286 176.525 260.36 181.944 262.435C183.298 262.954 184.654 263.473 186.009 263.991C187.104 264.41 189.16 264.807 189.089 266.318C189.06 266.929 188.781 267.495 188.534 268.043C188.22 268.745 187.903 269.446 187.588 270.146C186.974 271.511 186.359 272.877 185.745 274.242C183.354 279.554 180.978 284.875 178.602 290.196C173.818 300.914 173.119 302.439 168.398 313.186C167.812 314.519 167.226 315.854 166.639 317.187C166.609 317.256 166.713 317.306 166.744 317.238C171.593 306.555 172.548 305.15 177.378 294.459C179.811 289.076 182.218 283.68 184.61 278.279C185.791 275.615 186.971 272.951 188.151 270.287C188.652 269.158 189.361 267.971 189.59 266.746C189.77 265.796 189.418 264.975 188.592 264.47Z" fill="#5B5B5B"/>
<path d="M199.712 334.874C197.437 333.786 195.19 332.648 192.872 331.663C190.55 330.677 188.209 329.737 185.863 328.814C181.202 326.981 176.506 325.237 171.784 323.581C169.117 322.646 166.425 321.782 163.77 320.81C163.698 320.783 163.669 320.917 163.74 320.943C168.51 322.691 173.2 324.711 177.911 326.626C182.523 328.502 187.124 330.409 191.756 332.228C194.362 333.252 197.005 334.147 199.632 335.103C199.744 335.145 199.82 334.926 199.712 334.874Z" fill="#5B5B5B"/>
<path d="M142.251 219.738C144.435 219.255 146.535 218.554 148.639 217.796C150.374 217.17 152.151 216.526 153.406 215.103C155.854 212.327 156.242 208.258 156.148 204.717C156.146 204.634 156.289 204.627 156.295 204.71C156.571 208.53 157.287 212.828 154.542 215.998C153.183 217.567 151.311 218.345 149.347 218.884C147.064 219.511 144.634 219.748 142.279 219.898C142.178 219.904 142.146 219.761 142.251 219.738Z" fill="#5B5B5B"/>
<path d="M199.838 172.391C199.315 172.421 196.87 172.568 193.295 172.791C191.958 170.558 190.338 166.578 190.758 160.842C190.833 159.893 188.799 165.408 189.972 172.998C183.064 173.421 173.666 173.992 165.454 174.413C165.176 171.21 164.773 168.254 164.773 168.254C164.578 170.577 164.161 172.682 163.669 174.511C162.546 174.577 161.445 174.621 160.39 174.673C160.445 169.683 159.272 161.037 159.272 161.037C158.753 167.101 157.004 171.994 155.72 174.886C150.504 175.098 147.068 175.144 147.279 174.888C154.835 165.546 148.862 160.55 150.809 152.497C153.146 142.847 161.322 141.024 160.81 133.861C160.409 128.032 159.288 117.472 166.575 114.934C166.575 114.934 172.326 108.143 181.878 111.409C193.694 115.437 189.754 133.605 190.684 137.235C192.01 142.422 194.567 144.172 196.647 150.066C198.769 156.03 196.169 160.14 196.01 164.243C195.868 168.344 201.146 172.33 199.838 172.391Z" fill="#263238"/>
<path d="M146.998 173.606C147.99 171.95 148.865 170.213 149.342 168.402C149.872 166.601 149.545 164.79 149.116 162.923C148.688 161.067 148.189 159.171 147.941 157.194C147.715 155.223 147.71 153.142 148.293 151.164C148.841 149.183 149.902 147.363 151.242 145.87C152.564 144.354 154.099 143.118 155.58 141.898C157.046 140.664 158.508 139.446 159.582 137.906C160.683 136.389 161.318 134.544 161.479 132.611C161.628 134.54 161.189 136.559 160.177 138.284C159.179 140.021 157.752 141.441 156.338 142.758C154.922 144.084 153.496 145.35 152.317 146.782C151.146 148.214 150.226 149.818 149.767 151.572C149.302 153.321 149.22 155.172 149.422 157.03C149.599 158.893 150.017 160.757 150.341 162.685C150.494 163.65 150.635 164.634 150.64 165.65C150.65 166.669 150.432 167.709 150.091 168.64C149.366 170.502 148.284 172.154 146.998 173.606Z" fill="#263238"/>
<path d="M188.716 117.856C189.706 120.034 190.132 122.42 190.56 124.76C190.944 127.116 191.214 129.486 191.456 131.846L191.842 135.37C191.973 136.548 192.163 137.65 192.5 138.727C193.159 140.89 194.454 142.75 195.906 144.638C196.612 145.596 197.33 146.594 197.925 147.683C198.522 148.769 199.011 149.926 199.352 151.12C199.658 152.33 199.878 153.518 199.999 154.742C200.127 155.962 200.108 157.215 199.935 158.435C199.768 159.659 199.468 160.822 199.223 161.961C198.975 163.097 198.831 164.257 198.805 165.405C198.715 167.682 200 169.904 201.893 171.321C199.81 170.187 198.23 167.946 198.066 165.429C197.987 164.205 198.067 162.99 198.236 161.79C198.398 160.59 198.654 159.44 198.742 158.302C198.942 156.046 198.569 153.714 197.946 151.53C197.599 150.453 197.166 149.41 196.606 148.424C196.051 147.434 195.372 146.505 194.662 145.561C193.962 144.61 193.234 143.634 192.603 142.566C191.975 141.501 191.44 140.354 191.095 139.151C190.757 137.95 190.585 136.698 190.491 135.514C190.38 134.318 190.314 133.13 190.25 131.945C190.111 129.574 190.007 127.21 189.805 124.854C189.634 122.494 189.37 120.143 188.716 117.856Z" fill="#263238"/>
<path d="M167.249 114.679C169.009 113.054 169.225 107.224 166.595 104.569C162.974 100.913 155.189 105 156.753 110.573C158.319 116.154 165.89 115.934 167.249 114.679Z" fill="#263238"/>
<path d="M159.126 104.5C160.588 103.611 162.221 102.975 163.849 102.896C164.658 102.872 165.458 103.021 166.115 103.426C166.774 103.822 167.298 104.43 167.652 105.148C168.03 105.851 168.248 106.662 168.432 107.47C168.63 108.278 168.687 109.106 168.698 109.932C168.67 111.579 168.238 113.267 167.25 114.679C168.498 113.477 169.216 111.731 169.351 109.966C169.422 109.082 169.372 108.185 169.21 107.314C169.03 106.451 168.818 105.582 168.389 104.765C167.972 103.957 167.338 103.204 166.503 102.746C165.669 102.287 164.701 102.147 163.805 102.254C161.999 102.464 160.405 103.356 159.126 104.5Z" fill="#263238"/>
<path d="M173.548 157.399C177.326 172.765 187.144 192.245 194.81 194.826C200 196.574 218.418 183.302 225.314 179.013C232.254 174.698 216.739 157.82 212.784 160.555C206.656 164.794 198.389 171.018 196.839 170.522C194.907 169.904 192.009 165.354 180.532 152.485C175.681 147.043 171.94 150.858 173.548 157.399Z" fill="#FFBF9D"/>
<path d="M220.203 154.042C223.455 152.892 227.093 151.314 230.706 151.382C234.32 151.45 237.32 156.22 237.32 157.586C237.32 158.952 235.957 167.472 232.343 167.472C228.73 167.472 230.911 160.926 230.775 160.177C230.639 159.426 230.502 158.467 229.821 158.538C229.139 158.609 217.207 164.268 217.207 164.268L220.203 154.042Z" fill="#FFBF9D"/>
<path d="M220.434 154.541C220.638 154.541 230.32 150.722 233.934 150.791C237.547 150.859 240.547 155.63 240.547 156.996C240.547 158.362 239.183 166.882 235.57 166.882C231.956 166.882 234.138 160.337 234.002 159.587C233.865 158.837 233.729 157.878 233.047 157.949C232.366 158.02 220.434 163.678 220.434 163.678V154.541Z" fill="#FFBF9D"/>
<path d="M234.343 166.423C233.898 165.852 233.821 164.993 233.742 164.288C233.655 163.519 233.719 162.737 233.873 161.981C234.006 161.323 234.288 160.669 234.311 159.994C234.333 159.369 234.106 158.626 233.808 158.083C233.529 157.577 232.998 157.75 232.542 157.91C231.87 158.147 231.215 158.482 230.578 158.798C229.887 159.141 229.203 159.499 228.519 159.853C227.815 160.216 227.074 160.554 226.422 161.006C226.373 161.039 226.405 161.126 226.466 161.104C227.098 160.884 227.695 160.563 228.3 160.279C228.986 159.958 229.674 159.64 230.367 159.332C231.014 159.044 231.646 158.722 232.298 158.445C232.528 158.347 232.988 158.101 233.25 158.159C233.526 158.222 233.662 158.898 233.723 159.119C233.916 159.812 233.789 160.398 233.598 161.072C233.414 161.72 233.277 162.38 233.224 163.053C233.175 163.672 233.196 164.336 233.374 164.936C233.546 165.513 233.938 165.978 234.236 166.49C234.277 166.563 234.394 166.487 234.343 166.423Z" fill="#263238"/>
<path d="M208.971 164.025C208.971 164.025 218.986 154.898 221.07 153.086C225.252 149.45 242.866 142.255 245.32 141.995C247.774 141.735 248.661 146.768 236.706 151.995C230.406 154.75 229.285 158.358 229.405 160.358C229.525 162.358 231.434 166.086 234.798 165.994C238.161 165.904 240.342 160.994 243.434 160.45C246.525 159.904 244.483 165.569 242.302 168.842C240.12 172.114 236.161 174.813 233.252 175.904C230.343 176.994 221.34 180.874 221.34 180.874L208.971 164.025Z" fill="#FFBF9D"/>
<path d="M238.97 163.63C237.704 164.611 236.269 165.881 234.602 165.944C232.879 166.009 231.76 164.89 230.96 163.486C230.154 162.07 229.685 160.455 230.077 158.834C230.43 157.374 231.299 156.084 232.382 155.062C233.72 153.796 235.305 152.856 236.938 152.029C237.011 151.992 236.947 151.886 236.871 151.92C235.323 152.612 230.51 154.583 229.546 158.834C229.153 160.571 229.674 162.121 230.484 163.574C231.229 164.914 232.314 166.205 233.945 166.337C235.933 166.498 237.643 164.882 239.07 163.676C239.133 163.623 239.037 163.578 238.97 163.63Z" fill="#263238"/>
<path d="M181.712 184.234L194.81 165.31C194.81 165.31 189.758 159.466 182.266 152.827C174.774 146.189 170.201 148.375 173.138 161.545C176.074 174.715 181.712 184.234 181.712 184.234Z" fill="#FFC727"/>
<path d="M176.789 161.764L175.623 163.337L173.767 163.959L174.902 165.554L174.922 167.512L176.789 166.925L178.657 167.512L178.675 165.554L179.81 163.959L177.955 163.337L176.789 161.764Z" fill="white"/>
<path d="M186.582 156.796L185.693 157.095L186.826 158.686L186.844 160.643L188.716 160.053L190.401 160.586L186.582 156.796Z" fill="white"/>
<path d="M174.91 149.252L174.92 149.945L176.746 149.374C176.062 149.186 175.453 149.139 174.91 149.252Z" fill="white"/>
<path d="M183.212 174.72L184.345 176.311L184.364 178.277L186.236 177.687H186.245L188.473 174.458L187.396 174.102L186.236 172.53L185.066 174.102L183.212 174.72Z" fill="white"/>
<path opacity="0.1" d="M173.14 161.55C176.074 174.714 181.71 184.23 181.71 184.23L192.009 169.358C187.721 163.574 177.554 152.723 175.21 149.211C172.378 149.466 171.322 153.412 173.14 161.55Z" fill="black"/>
<path d="M192.044 163.394C190.914 164.685 189.97 166.155 188.954 167.535C187.982 168.853 187.011 170.173 186.083 171.521C184.157 174.322 182.295 177.154 180.489 180.033C180.458 180.082 180.538 180.143 180.574 180.094C182.576 177.394 184.538 174.674 186.47 171.922C187.429 170.555 188.354 169.162 189.276 167.77C190.224 166.338 191.29 164.955 192.129 163.455C192.158 163.404 192.084 163.348 192.044 163.394Z" fill="#263238"/>
<path d="M188.174 205.416C188.174 205.416 135.362 203.466 133.678 202.462C133.678 202.462 142.759 177.989 153.422 159.156C164.844 138.985 175.456 146.27 179.024 150.233C183.253 154.93 190.626 171.421 190.921 174.465C191.407 179.494 186.57 184.476 186.57 184.476L188.174 205.416Z" fill="#FFC727"/>
<path d="M163.494 152.63L162.328 154.202L160.472 154.826L161.607 156.42L161.626 158.378L163.494 157.79L165.362 158.378L165.38 156.42L166.515 154.826L164.659 154.202L163.494 152.63Z" fill="white"/>
<path d="M150.192 180.738L149.026 182.31L147.17 182.934L148.306 184.529L148.324 186.486L150.192 185.898L152.059 186.486L152.078 184.529L153.214 182.934L151.358 182.31L150.192 180.738Z" fill="white"/>
<path d="M176.12 182.314L174.954 183.886L173.098 184.51L174.234 186.104L174.252 188.062L176.12 187.474L177.987 188.062L178.006 186.104L179.142 184.51L177.286 183.886L176.12 182.314Z" fill="white"/>
<path d="M147.635 202.398L148.543 203.67C149.863 203.746 151.23 203.811 152.624 203.886L153.682 202.398L151.828 201.78L150.658 200.207L149.488 201.78L147.635 202.398Z" fill="white"/>
<path d="M149.76 165.941V165.95L149.919 166.166L149.938 168.122L151.81 167.532L153.672 168.122L153.69 166.166L154.832 164.574L152.97 163.947L151.809 162.374L151.238 163.142L151.228 163.16C150.724 164.078 150.237 165.005 149.76 165.941Z" fill="white"/>
<path d="M163.494 189.999L162.328 191.572L160.472 192.195L161.607 193.79L161.626 195.747L163.494 195.16L165.362 195.747L165.38 193.79L166.515 192.195L164.659 191.572L163.494 189.999Z" fill="white"/>
<path d="M136.253 195.855L137.966 195.312L139.838 195.902L139.856 193.946L140.989 192.345L139.135 191.727L138.368 190.698C137.573 192.598 136.862 194.33 136.253 195.855Z" fill="white"/>
<path d="M184.149 194.133L185.281 195.724L185.3 197.681L187.172 197.09L187.546 197.213L187.143 191.971L186.002 193.506L184.149 194.133Z" fill="white"/>
<path d="M176.789 161.764L175.623 163.337L173.767 163.959L174.902 165.554L174.922 167.512L176.789 166.925L178.657 167.512L178.675 165.554L179.81 163.959L177.955 163.337L176.789 161.764Z" fill="white"/>
<path d="M173.852 146.5L174.9 147.988L174.918 149.944L176.79 149.354L178.653 149.944V149.841C177.54 148.681 175.893 147.352 173.852 146.5Z" fill="white"/>
<path d="M164.278 171.046L163.113 172.618L161.257 173.241L162.392 174.835L162.411 176.793L164.278 176.206L166.146 176.793L166.165 174.835L167.3 173.241L165.444 172.618L164.278 171.046Z" fill="white"/>
<path d="M171.98 203.287L173.066 204.813C174.394 204.869 175.668 204.925 176.885 204.972V204.878L178.018 203.287L176.164 202.66L175.003 201.087L173.834 202.66L171.98 203.287Z" fill="white"/>
<path d="M186.233 172.526L185.066 174.098L183.211 174.721L184.346 176.316L184.365 178.274L186.233 177.686L188.1 178.274L188.119 176.316L189.254 174.721L187.398 174.098L186.233 172.526Z" fill="white"/>
<path d="M170.06 182.241C172.291 182.49 174.53 182.816 176.702 183.393C177.783 183.68 178.844 184.015 179.902 184.374C180.43 184.554 180.961 184.714 181.494 184.873C182.042 185.035 182.631 185.187 183.206 185.211C183.258 185.214 183.255 185.29 183.204 185.291C182.646 185.302 182.11 185.31 181.554 185.246C181.025 185.186 180.499 185.068 179.983 184.936C178.884 184.655 177.798 184.324 176.702 184.032C174.491 183.442 172.28 182.854 170.03 182.426C169.926 182.406 169.954 182.229 170.06 182.241Z" fill="#263238"/>
<path d="M164.505 184.177C166.343 184.006 168.218 183.92 170.064 183.958C170.993 183.978 171.914 184.05 172.837 184.148C173.278 184.194 173.718 184.249 174.158 184.309C174.641 184.374 175.116 184.506 175.6 184.564C175.65 184.57 175.65 184.649 175.598 184.644C175.14 184.602 174.673 184.636 174.213 184.622C173.75 184.606 173.289 184.588 172.826 184.573C171.901 184.542 170.976 184.522 170.05 184.482C168.198 184.403 166.354 184.343 164.5 184.329C164.401 184.329 164.41 184.186 164.505 184.177Z" fill="#263238"/>
<path d="M167.732 150.139C167.904 151.11 172.142 157.575 176.533 157.606C177.962 157.613 178.352 149.81 178.352 149.81L178.513 149.241L180.752 141.268L171.601 134.675L170.274 133.796C170.274 133.796 169.806 136.018 169.25 138.79C169.223 138.918 169.197 139.046 169.17 139.185C169.135 139.341 169.099 139.488 169.073 139.634C168.984 140.047 168.896 140.47 168.817 140.892C168.755 141.214 168.694 141.526 168.641 141.865C168.579 142.204 168.527 142.534 168.466 142.874C167.931 146.234 167.664 149.727 167.732 150.139Z" fill="#FFBF9D"/>
<path d="M169.249 138.79C171.214 145.338 176.204 148.232 178.513 149.241L180.752 141.268L171.601 134.675L170.274 133.796C170.274 133.796 169.805 136.018 169.249 138.79Z" fill="#263238"/>
<path d="M193.766 129.437C193.934 143.97 185.249 145.712 182.115 145.745C179.27 145.775 169.58 145.515 167.91 131.078C166.241 116.64 172.945 111.968 179.447 111.555C185.95 111.142 193.597 114.904 193.766 129.437Z" fill="#FFBF9D"/>
<path d="M168.363 134.219C171.596 132.558 171.623 129.113 171.623 129.113C175.645 127.227 177.743 123.975 177.962 123.646C177.872 123.955 177.228 126.193 176.864 127.322C186.236 125.238 188.91 117.922 188.91 117.922C192.072 120.87 192.75 122.802 193.226 123.762C193.226 123.762 193.098 117.973 189.99 114.199C186.188 109.578 173.848 108.716 168.368 115.098C162.467 121.98 168.363 134.219 168.363 134.219Z" fill="#263238"/>
<path d="M183.98 125.516C182.506 126.413 180.855 127.041 179.202 127.458C179.189 127.462 179.185 127.441 179.198 127.436C181.83 126.593 184.168 125.119 185.978 123.014C186.744 122.125 187.395 121.152 187.917 120.101C188.462 119.002 188.986 117.698 189.048 116.462C189.053 116.368 189.198 116.375 189.194 116.469C189.13 117.775 189.056 118.979 188.573 120.211C188.114 121.381 187.433 122.478 186.584 123.405C185.824 124.234 184.94 124.931 183.98 125.516Z" fill="#263238"/>
<path d="M170.233 132.166C170.233 132.166 167.41 127.405 165.272 128.379C163.135 129.353 165.021 136.09 167.363 137.167C169.706 138.245 170.746 136.096 170.746 136.096L170.233 132.166Z" fill="#FFBF9D"/>
<path d="M165.861 130.296C165.822 130.29 165.81 130.343 165.843 130.359C167.482 131.17 168.254 132.804 168.754 134.475C168.299 133.812 167.64 133.418 166.758 133.954C166.711 133.982 166.748 134.054 166.797 134.047C167.5 133.951 167.99 134.108 168.416 134.698C168.718 135.115 168.906 135.628 169.11 136.099C169.178 136.256 169.456 136.196 169.412 136.018C169.409 136.005 169.404 135.99 169.401 135.978C169.606 133.827 168.158 130.687 165.861 130.296Z" fill="#263238"/>
<path d="M190.9 126.491C190.554 126.451 190.242 126.356 189.906 126.281C189.525 126.196 189.213 126.167 188.932 125.873C188.782 125.714 188.794 125.394 188.933 125.234C189.258 124.859 189.75 124.847 190.214 124.931C190.715 125.022 191.079 125.22 191.41 125.606C191.731 125.981 191.355 126.544 190.9 126.491Z" fill="#263238"/>
<path d="M180.32 126.453C180.666 126.413 180.978 126.318 181.315 126.243C181.696 126.158 182.008 126.13 182.29 125.837C182.44 125.679 182.429 125.358 182.289 125.198C181.964 124.823 181.471 124.81 181.009 124.894C180.506 124.983 180.142 125.182 179.81 125.567C179.49 125.941 179.865 126.506 180.32 126.453Z" fill="#263238"/>
<path d="M182.651 130.068C182.643 130.03 182.574 130.118 182.576 130.158C182.63 131.16 182.525 132.316 181.626 132.669C181.598 132.68 181.602 132.73 181.635 132.725C182.738 132.543 182.863 131.008 182.651 130.068Z" fill="#263238"/>
<path d="M181.732 129.042C180.118 128.956 180.065 132.191 181.561 132.271C183.033 132.349 183.086 129.113 181.732 129.042Z" fill="#263238"/>
<path d="M181.094 129.202C180.809 129.38 180.526 129.698 180.186 129.726C179.79 129.759 179.498 129.415 179.246 129.086C179.22 129.051 179.192 129.079 179.19 129.122C179.171 129.742 179.399 130.382 180.062 130.485C180.667 130.579 181.112 130.038 181.277 129.417C181.306 129.302 181.209 129.13 181.094 129.202Z" fill="#263238"/>
<path d="M188.71 129.947C188.718 129.909 188.786 129.997 188.785 130.038C188.729 131.039 188.834 132.195 189.732 132.55C189.76 132.561 189.756 132.611 189.722 132.606C188.62 132.423 188.496 130.887 188.71 129.947Z" fill="#263238"/>
<path d="M189.63 128.922C191.245 128.839 191.293 132.074 189.797 132.152C188.325 132.228 188.276 128.992 189.63 128.922Z" fill="#263238"/>
<path d="M190.308 129.125C190.566 129.293 190.824 129.6 191.13 129.616C191.484 129.634 191.741 129.28 191.962 128.942C191.985 128.906 192.01 128.933 192.012 128.976C192.038 129.594 191.843 130.242 191.251 130.369C190.711 130.486 190.305 129.961 190.148 129.346C190.119 129.233 190.204 129.058 190.308 129.125Z" fill="#263238"/>
<path d="M182.886 138.293C183.11 138.542 183.33 138.879 183.691 138.932C184.038 138.982 184.455 138.85 184.782 138.746C184.814 138.736 184.845 138.771 184.822 138.801C184.539 139.169 183.978 139.375 183.518 139.266C183.07 139.158 182.87 138.753 182.786 138.332C182.774 138.274 182.853 138.257 182.886 138.293Z" fill="#263238"/>
<path d="M187.094 134.689C187.094 134.689 187.294 136.187 187.29 136.893C187.29 136.959 187.118 136.99 186.879 137.002C186.868 137.006 186.862 137.01 186.851 137.003C185.603 137.192 184.35 136.756 183.597 135.734C183.548 135.665 183.638 135.593 183.702 135.637C184.63 136.325 185.658 136.506 186.764 136.529C186.814 136.334 186.335 133.974 186.448 133.966C186.834 133.935 187.594 134.202 188.05 134.337C187.723 131.204 186.898 128.15 186.62 125.025C186.612 124.913 186.772 124.881 186.805 124.98C187.897 128.12 188.351 131.717 188.771 134.943C188.826 135.347 187.375 134.81 187.094 134.689Z" fill="#263238"/>
<path d="M186.778 136.664C186.778 136.664 186.151 137.641 185.23 138.04C184.891 138.189 184.52 138.263 184.121 138.185C183.3 138.027 183.23 137.289 183.335 136.646C183.42 136.118 183.631 135.653 183.631 135.653C183.631 135.653 184.882 136.675 186.778 136.664Z" fill="#263238"/>
<path d="M185.23 138.04C184.891 138.189 184.52 138.263 184.121 138.185C183.3 138.027 183.23 137.289 183.335 136.646C184.205 136.676 185.1 137.205 185.23 138.04Z" fill="#FF9BBC"/>
<path d="M158.516 161.602C161.186 177.269 173.294 208.563 180.118 211.313C189.786 215.207 220.766 205.052 227.524 200.102C230.214 198.133 217.997 178.398 214.538 179.262C202.614 182.24 190.211 184.662 189.194 184.142C189.194 184.142 176.685 166.966 169.331 156.912C160.093 144.278 157.318 154.571 158.516 161.602Z" fill="#FFBF9D"/>
<path d="M227.525 200.102C229.057 199.555 239.607 191.898 242.717 188.305C244.7 186.012 248.116 182.046 250.826 175.73C253.954 168.442 255.427 163.107 254.674 160.718C253.798 157.942 253.549 157.491 246.255 169.588C242.129 176.433 238.194 177.202 234.782 177.138C220.793 176.875 210.55 182.558 210.55 182.558C210.55 182.558 221.634 202.202 227.525 200.102Z" fill="#FFBF9D"/>
<path d="M261.383 153.091L241.081 174.664C240.517 175.254 239.499 175.498 238.806 175.199L226.386 169.859C225.693 169.561 225.585 168.833 226.141 168.24L246.442 146.667C247.01 146.07 248.024 145.834 248.718 146.132L261.137 151.472C261.831 151.77 261.942 152.49 261.383 153.091Z" fill="#5B5B5B"/>
<path d="M260.024 150.99L247.603 145.649C246.91 145.35 245.893 145.591 245.33 146.188L225.029 167.756C224.468 168.351 224.575 169.078 225.269 169.376L237.69 174.717C238.384 175.015 239.403 174.774 239.964 174.178L260.265 152.61C260.828 152.014 260.718 151.289 260.024 150.99ZM239.807 173.174C239.273 173.742 238.337 173.985 237.715 173.718L226.603 168.939C225.98 168.671 225.909 167.995 226.442 167.428L245.346 147.344C246.435 146.187 246.992 146.348 247.615 146.616L249.841 147.573C249.97 147.629 249.959 147.798 249.814 147.952L249.752 148.018C249.414 148.378 249.646 148.48 249.933 148.604L255.081 150.818C255.37 150.942 255.603 151.04 255.942 150.68L256.004 150.614C256.149 150.46 256.37 150.381 256.502 150.438L258.728 151.395C259.35 151.662 259.709 152.033 258.712 153.092L239.807 173.174Z" fill="#263238"/>
<path d="M253.632 149.562L252.228 148.958C252.18 148.937 252.172 148.887 252.21 148.847C252.249 148.806 252.318 148.79 252.366 148.811L253.77 149.415C253.818 149.436 253.826 149.485 253.787 149.526C253.75 149.566 253.68 149.582 253.632 149.562Z" fill="white"/>
<path d="M258.711 153.09L239.807 173.174C239.273 173.742 238.337 173.985 237.715 173.718L226.603 168.939C225.98 168.671 225.908 167.995 226.442 167.428L245.346 147.344C246.435 146.187 246.992 146.348 247.615 146.616L249.841 147.573C249.97 147.629 249.959 147.798 249.814 147.951L249.752 148.018C249.413 148.378 249.646 148.479 249.933 148.603L255.081 150.817C255.37 150.942 255.603 151.039 255.942 150.679L256.004 150.613C256.149 150.459 256.37 150.38 256.502 150.437L258.728 151.394C259.349 151.661 259.708 152.031 258.711 153.09Z" fill="white"/>
<path d="M258.711 153.09L257.301 154.589L243.936 148.842L245.346 147.344C246.435 146.187 246.992 146.348 247.615 146.616L249.842 147.574C249.971 147.63 249.96 147.798 249.815 147.952L249.753 148.018C249.414 148.378 249.646 148.48 249.933 148.603L255.081 150.817C255.37 150.942 255.604 151.04 255.942 150.68L256.005 150.614C256.15 150.46 256.37 150.381 256.502 150.438L258.728 151.394C259.349 151.661 259.708 152.031 258.711 153.09Z" fill="#3170CE"/>
<path d="M245.978 148.692L245.876 148.21L246.565 148.068L246.574 148.15L246.007 148.266L246.09 148.663L245.978 148.692Z" fill="white"/>
<path d="M257.447 153.005C257.413 153.041 257.35 153.055 257.308 153.037C257.265 153.018 257.257 152.974 257.292 152.938C257.326 152.902 257.389 152.887 257.431 152.906C257.474 152.924 257.481 152.969 257.447 153.005Z" fill="white"/>
<path d="M257.228 153.238C257.194 153.274 257.131 153.288 257.089 153.27C257.046 153.251 257.038 153.206 257.073 153.17C257.107 153.134 257.17 153.12 257.212 153.138C257.255 153.158 257.262 153.202 257.228 153.238Z" fill="white"/>
<path d="M257.009 153.471C256.974 153.507 256.912 153.522 256.87 153.503C256.826 153.485 256.819 153.441 256.854 153.404C256.888 153.368 256.95 153.354 256.993 153.372C257.035 153.39 257.042 153.434 257.009 153.471Z" fill="white"/>
<path d="M249.032 147.858C249.019 147.862 249.006 147.864 248.994 147.867C248.986 147.869 248.979 147.87 248.972 147.872C248.958 147.8 248.914 147.745 248.833 147.71C248.752 147.676 248.66 147.671 248.557 147.694C248.556 147.689 248.555 147.683 248.555 147.678C248.554 147.67 248.552 147.66 248.551 147.651C248.551 147.651 248.551 147.651 248.55 147.65C248.55 147.65 248.55 147.65 248.551 147.65C248.552 147.65 248.553 147.65 248.554 147.649C248.569 147.646 248.585 147.642 248.6 147.64C248.632 147.635 248.663 147.633 248.694 147.634C248.731 147.634 248.766 147.638 248.8 147.646C248.816 147.65 248.831 147.654 248.846 147.659C248.852 147.661 248.882 147.674 248.883 147.674C248.892 147.679 248.902 147.683 248.91 147.689C248.934 147.702 248.954 147.719 248.971 147.737C248.984 147.75 248.994 147.765 249.004 147.779C249.014 147.795 249.021 147.812 249.026 147.83C249.028 147.84 249.03 147.849 249.032 147.858Z" fill="white"/>
<path d="M248.571 147.78C248.569 147.766 248.566 147.751 248.564 147.737C248.633 147.722 248.698 147.721 248.758 147.738C248.846 147.763 248.896 147.814 248.91 147.885C248.89 147.89 248.87 147.894 248.85 147.899C248.841 147.851 248.81 147.814 248.756 147.791C248.702 147.768 248.64 147.765 248.571 147.78Z" fill="white"/>
<path d="M248.789 147.914C248.769 147.918 248.749 147.923 248.728 147.927C248.723 147.902 248.708 147.884 248.68 147.872C248.652 147.86 248.62 147.858 248.586 147.866C248.583 147.852 248.581 147.838 248.578 147.823C248.677 147.799 248.778 147.837 248.789 147.914Z" fill="white"/>
<path d="M248.663 147.936C248.65 147.95 248.626 147.956 248.609 147.949C248.592 147.942 248.589 147.924 248.602 147.91C248.616 147.896 248.64 147.89 248.658 147.898C248.674 147.905 248.677 147.922 248.663 147.936Z" fill="white"/>
<path d="M246.883 147.011C246.922 146.97 246.994 146.954 247.042 146.974C247.091 146.995 247.099 147.046 247.061 147.087C247.022 147.129 246.95 147.145 246.902 147.124C246.853 147.103 246.844 147.053 246.883 147.011Z" fill="white"/>
<path d="M247.162 147.131C247.201 147.09 247.272 147.074 247.322 147.094C247.37 147.115 247.378 147.166 247.34 147.207C247.302 147.249 247.23 147.265 247.181 147.244C247.131 147.223 247.123 147.173 247.162 147.131Z" fill="white"/>
<path d="M247.441 147.251C247.48 147.21 247.551 147.194 247.6 147.214C247.649 147.235 247.657 147.286 247.618 147.327C247.58 147.368 247.509 147.385 247.459 147.364C247.41 147.343 247.402 147.292 247.441 147.251Z" fill="white"/>
<path d="M247.72 147.371C247.759 147.33 247.83 147.314 247.879 147.334C247.928 147.355 247.936 147.406 247.898 147.447C247.859 147.489 247.788 147.505 247.738 147.484C247.69 147.463 247.682 147.413 247.72 147.371Z" fill="white"/>
<path d="M247.999 147.491C248.038 147.45 248.109 147.434 248.158 147.454C248.207 147.475 248.215 147.526 248.177 147.567C248.138 147.609 248.066 147.625 248.018 147.604C247.969 147.583 247.96 147.532 247.999 147.491Z" fill="white"/>
<path d="M258.453 151.841L257.769 151.547L257.533 151.798L258.217 152.092L258.453 151.841Z" stroke="white" stroke-width="0.5" stroke-miterlimit="10"/>
<path d="M258.244 151.797L257.779 151.597L257.604 151.783L258.069 151.983L258.244 151.797Z" fill="white"/>
<path d="M258.347 152.078L258.282 152.05L258.425 151.899L258.489 151.926L258.347 152.078Z" fill="white"/>
<path d="M228.662 168.1L228.561 168.056L228.19 168.45L228 168.368L228.189 168.167L227.853 168.023L227.664 168.223L227.474 168.142L227.845 167.748L227.742 167.705L228.579 167.502L228.662 168.1Z" fill="#EBEBEB"/>
<path d="M239.137 172.229L238.029 171.752L238.155 171.618L239.262 172.095L239.137 172.229Z" fill="#EBEBEB"/>
<path d="M238.826 172.559L237.718 172.082L237.844 171.949L238.952 172.426L238.826 172.559Z" fill="#EBEBEB"/>
<path d="M238.515 172.89L237.407 172.413L237.533 172.279L238.641 172.756L238.515 172.89Z" fill="#EBEBEB"/>
<path d="M233.682 170.179L233.1 170.327L233.052 169.908L233.15 169.888L233.189 170.233L233.668 170.111L233.682 170.179Z" fill="#EBEBEB"/>
<path d="M233.814 170.367C233.579 170.616 233.15 170.715 232.855 170.588C232.56 170.461 232.51 170.157 232.745 169.907C232.979 169.658 233.408 169.559 233.703 169.686C233.998 169.814 234.047 170.118 233.814 170.367Z" stroke="#EBEBEB" stroke-miterlimit="10"/>
<path d="M250.292 150.256C250.447 150.092 250.736 150.029 250.934 150.113C251.02 150.15 251.076 150.208 251.1 150.275C251.108 150.302 251.085 150.333 251.047 150.346C251.008 150.358 250.969 150.346 250.96 150.321C250.945 150.272 250.906 150.234 250.845 150.207C250.777 150.178 250.692 150.174 250.612 150.19C250.532 150.21 250.458 150.247 250.405 150.304C250.352 150.361 250.331 150.424 250.341 150.479C250.353 150.535 250.394 150.586 250.462 150.615C250.522 150.642 250.59 150.649 250.662 150.638C250.698 150.633 250.731 150.652 250.732 150.681C250.73 150.709 250.698 150.738 250.66 150.743C250.56 150.758 250.458 150.747 250.372 150.71C250.175 150.625 250.138 150.421 250.292 150.256Z" fill="white"/>
<path d="M250.842 150.847L251.302 150.358C251.326 150.333 251.369 150.323 251.399 150.336C251.43 150.349 251.435 150.379 251.411 150.406L251.224 150.605L251.478 150.714L251.666 150.515C251.69 150.49 251.732 150.48 251.762 150.493C251.793 150.506 251.798 150.536 251.774 150.562L251.314 151.051C251.29 151.077 251.247 151.086 251.217 151.073C251.186 151.06 251.182 151.03 251.206 151.004L251.393 150.805L251.138 150.695L250.951 150.894C250.927 150.92 250.884 150.93 250.853 150.916C250.823 150.903 250.818 150.874 250.842 150.847Z" fill="white"/>
<path d="M251.912 151.179L251.674 151.077L251.524 151.164C251.498 151.178 251.467 151.181 251.446 151.171C251.438 151.168 251.434 151.165 251.43 151.161C251.41 151.139 251.421 151.107 251.454 151.087L252.13 150.692C252.157 150.678 252.189 150.675 252.21 150.686C252.233 150.694 252.242 150.715 252.234 150.737L251.992 151.318C251.979 151.346 251.941 151.367 251.903 151.364C251.897 151.363 251.889 151.362 251.882 151.358C251.861 151.349 251.85 151.33 251.859 151.308L251.912 151.179ZM251.958 151.071L252.046 150.858L251.798 151.002L251.958 151.071Z" fill="white"/>
<path d="M252.85 151.089L252.694 151.022L252.277 151.464C252.253 151.49 252.21 151.499 252.18 151.486C252.15 151.474 252.145 151.443 252.169 151.418L252.586 150.975L252.43 150.909C252.4 150.896 252.397 150.864 252.42 150.839C252.444 150.814 252.486 150.804 252.517 150.817L252.937 150.998C252.966 151.01 252.972 151.041 252.948 151.066C252.924 151.09 252.879 151.102 252.85 151.089Z" fill="white"/>
<path d="M237.505 157.854L247.063 161.965L249.446 159.433L239.888 155.323L237.505 157.854Z" fill="#3170CE"/>
<path d="M247.949 162.345L247.063 161.965L247.795 161.187L247.949 162.345Z" fill="#3170CE"/>
<path d="M248.441 159.683L239.978 156.044L240.023 155.996L248.486 159.635L248.441 159.683Z" fill="white"/>
<path d="M246.441 159.188L239.734 156.304L239.779 156.256L246.486 159.139L246.441 159.188Z" fill="white"/>
<path d="M247.012 160.163L239.245 156.823L239.29 156.775L247.058 160.115L247.012 160.163Z" fill="white"/>
<path d="M247.463 160.722L239 157.083L239.045 157.035L247.509 160.674L247.463 160.722Z" fill="white"/>
<path d="M247.219 160.982L238.755 157.343L238.801 157.295L247.264 160.934L247.219 160.982Z" fill="white"/>
<path d="M244.63 160.234L238.511 157.603L238.556 157.554L244.675 160.186L244.63 160.234Z" fill="white"/>
<path d="M231.878 163.834L241.436 167.943L243.818 165.411L234.261 161.302L231.878 163.834Z" fill="#3170CE"/>
<path d="M242.321 168.324L241.436 167.943L242.168 167.166L242.321 168.324Z" fill="#3170CE"/>
<path d="M242.814 165.662L234.35 162.023L234.396 161.975L242.859 165.614L242.814 165.662Z" fill="white"/>
<path d="M240.813 165.166L234.106 162.282L234.151 162.234L240.858 165.118L240.813 165.166Z" fill="white"/>
<path d="M241.385 166.142L233.617 162.802L233.662 162.754L241.43 166.094L241.385 166.142Z" fill="white"/>
<path d="M241.836 166.701L233.373 163.062L233.418 163.014L241.881 166.653L241.836 166.701Z" fill="white"/>
<path d="M241.591 166.961L233.128 163.322L233.174 163.274L241.637 166.913L241.591 166.961Z" fill="white"/>
<path d="M239.002 166.213L232.883 163.582L232.929 163.534L239.048 166.165L239.002 166.213Z" fill="white"/>
<path d="M252.696 157.301L243.138 153.191L245.148 151.055L254.706 155.165L252.696 157.301Z" fill="#31B2CE"/>
<path d="M242.253 152.81L243.138 153.191L243.87 152.414L242.253 152.81Z" fill="#31B2CE"/>
<path d="M252.339 154.769L245.29 151.738L245.335 151.69L252.385 154.721L252.339 154.769Z" fill="white"/>
<path d="M253.509 155.637L245.046 151.998L245.091 151.95L253.554 155.589L253.509 155.637Z" fill="white"/>
<path d="M253.265 155.897L244.801 152.258L244.846 152.21L253.31 155.849L253.265 155.897Z" fill="white"/>
<path d="M252.35 155.868L244.557 152.518L244.602 152.47L252.395 155.82L252.35 155.868Z" fill="white"/>
<path d="M252.775 156.416L244.312 152.777L244.358 152.729L252.821 156.368L252.775 156.416Z" fill="white"/>
<path d="M250.321 155.726L244.068 153.037L244.113 152.989L250.366 155.678L250.321 155.726Z" fill="white"/>
<path d="M250.88 159.231L241.322 155.121L242.813 153.537L252.371 157.647L250.88 159.231Z" fill="#31B2CE"/>
<path d="M240.436 154.741L241.322 155.121L242.053 154.344L240.436 154.741Z" fill="#31B2CE"/>
<path d="M251.402 157.852L242.954 154.22L243 154.171L251.448 157.804L251.402 157.852Z" fill="white"/>
<path d="M249.663 157.47L242.71 154.479L242.755 154.431L249.709 157.421L249.663 157.47Z" fill="white"/>
<path d="M250.118 158.03L242.466 154.739L242.51 154.691L250.162 157.982L250.118 158.03Z" fill="white"/>
<path d="M248.123 157.537L242.221 154.999L242.266 154.951L248.169 157.489L248.123 157.537Z" fill="white"/>
<path d="M245.263 165.198L235.706 161.088L237.807 158.855L247.365 162.965L245.263 165.198Z" fill="#CBCED8"/>
<path d="M234.82 160.707L235.706 161.088L236.437 160.31L234.82 160.707Z" fill="#CBCED8"/>
<path d="M245.215 163.746L237.222 160.309L237.268 160.261L245.261 163.698L245.215 163.746Z" fill="white"/>
<path d="M244.32 163.726L236.978 160.569L237.023 160.521L244.365 163.678L244.32 163.726Z" fill="white"/>
<path d="M245.243 163.028L237.712 159.79L237.757 159.742L245.289 162.98L245.243 163.028Z" fill="white"/>
<path d="M246.314 163.123L237.956 159.53L238.002 159.482L246.36 163.075L246.314 163.123Z" fill="white"/>
<path d="M244.336 164.098L236.734 160.829L236.779 160.781L244.382 164.05L244.336 164.098Z" fill="white"/>
<path d="M239.95 170.842L230.392 166.732L232.142 164.873L241.701 168.982L239.95 170.842Z" fill="#31B2CE"/>
<path d="M229.507 166.352L230.392 166.732L231.124 165.955L229.507 166.352Z" fill="#31B2CE"/>
<path d="M240.763 169.178L232.3 165.539L232.346 165.49L240.809 169.13L240.763 169.178Z" fill="white"/>
<path d="M240.519 169.438L232.055 165.798L232.101 165.75L240.564 169.39L240.519 169.438Z" fill="white"/>
<path d="M239.604 169.41L231.811 166.058L231.856 166.01L239.65 169.362L239.604 169.41Z" fill="white"/>
<path d="M240.03 169.958L231.566 166.318L231.612 166.27L240.075 169.909L240.03 169.958Z" fill="white"/>
<path d="M237.575 169.266L231.322 166.578L231.367 166.53L237.621 169.218L237.575 169.266Z" fill="white"/>
<path d="M236.485 177.08C232.961 177.133 244.416 169.983 244.59 165.973C244.764 161.962 240.856 163.223 237.774 165.488C227.078 173.348 219.006 172.964 213.582 180.476C208.158 187.988 236.485 177.08 236.485 177.08Z" fill="#FFBF9D"/>
<path d="M229.412 170.554C226.828 171.838 224.26 173.154 221.751 174.558C220.498 175.262 219.287 176.019 218.137 176.87C216.981 177.707 215.843 178.592 214.781 179.533L214.714 179.592L214.627 179.614C212.383 180.183 210.146 180.771 207.889 181.283C205.634 181.802 203.375 182.306 201.111 182.789C198.846 183.266 196.566 183.679 194.277 184.042C193.131 184.221 191.98 184.371 190.813 184.422C190.521 184.433 190.229 184.439 189.93 184.406C189.625 184.403 189.324 184.218 189.119 184.02C188.69 183.611 188.371 183.12 188.085 182.618C188.408 183.095 188.774 183.554 189.209 183.916C189.632 184.334 190.228 184.212 190.796 184.174C191.936 184.055 193.067 183.814 194.2 183.605C196.465 183.166 198.71 182.622 200.963 182.115C203.216 181.605 205.464 181.071 207.709 180.524L214.449 178.908L214.296 178.99C215.41 178.036 216.555 177.152 217.758 176.33C218.962 175.514 220.23 174.788 221.516 174.125C222.8 173.455 224.104 172.831 225.426 172.248C226.745 171.659 228.069 171.083 229.412 170.554Z" fill="#263238"/>
<path d="M162.186 185.478L178.553 169.298C178.553 169.298 174.668 162.621 168.53 154.713C162.391 146.806 157.494 148.11 157.948 161.595C158.403 175.082 162.186 185.478 162.186 185.478Z" fill="#FFC727"/>
<path d="M164.659 154.202L166.515 154.826L165.38 156.42L165.361 158.378L163.494 157.79L161.626 158.378L161.608 156.42L160.473 154.826L162.329 154.202L163.494 152.63L164.659 154.202ZM173.768 163.956L174.901 165.557L174.919 167.513L176.791 166.923L177.166 167.045C176.586 166.118 175.827 164.93 174.91 163.572L173.768 163.956ZM164.278 171.046L163.113 172.618L161.257 173.242L162.392 174.837L162.41 176.794L164.278 176.207L166.146 176.794L166.165 174.837L167.3 173.242L165.444 172.618L164.278 171.046Z" fill="white"/>
<path d="M176.189 166.904C174.84 167.965 173.641 169.235 172.387 170.403C171.19 171.518 169.99 172.637 168.83 173.79C166.42 176.187 164.068 178.627 161.76 181.123C161.72 181.166 161.787 181.24 161.832 181.199C164.298 178.915 166.73 176.604 169.135 174.257C170.33 173.09 171.497 171.892 172.66 170.694C173.856 169.462 175.158 168.299 176.261 166.98C176.298 166.935 176.237 166.866 176.189 166.904Z" fill="#263238"/>
<path d="M177.575 167.132C177.143 166.411 176.69 165.707 176.225 165.008C176.129 164.864 176.032 164.721 175.936 164.577C175.547 163.603 175.15 162.628 174.661 161.7C174.644 161.668 174.594 161.684 174.606 161.721C174.867 162.482 175.187 163.224 175.522 163.958C174.802 162.894 174.058 161.842 173.238 160.858C173.211 160.826 173.166 160.861 173.186 160.895C174.022 162.354 174.96 163.754 175.848 165.18C176.278 165.87 178.474 169.221 178.444 169.258C178.444 169.258 178.03 169.682 177.975 169.799C177.914 169.929 177.986 169.883 178.026 169.849C178.058 169.821 178.849 169.228 178.849 169.228C178.842 169.199 177.944 167.747 177.575 167.132Z" fill="#263238"/>
<path d="M164.226 183.462C163.596 184.184 162.938 184.879 162.294 185.587L162.133 185.763L162.043 185.532C161.474 184.057 160.961 182.566 160.55 181.044C160.137 179.524 159.73 177.999 159.442 176.45C159.15 174.902 158.852 173.354 158.686 171.786C158.484 170.225 158.367 168.653 158.31 167.081L159.099 171.724C159.387 173.265 159.67 174.804 160.002 176.334C160.346 177.86 160.672 179.391 161.065 180.906C161.47 182.416 161.841 183.943 162.327 185.426L162.078 185.37C162.794 184.734 163.497 184.084 164.226 183.462Z" fill="#263238"/>
<path d="M157.326 170.043C157.754 170.67 158.09 171.327 158.417 171.99C158.572 172.326 158.733 172.658 158.87 173.003C159.012 173.346 159.156 173.688 159.268 174.052C158.762 173.486 158.385 172.833 158.056 172.164C157.742 171.487 157.467 170.79 157.326 170.043Z" fill="#263238"/>
<path d="M330.567 302.034C330.932 293.063 330.786 284.075 330.198 275.117C328.985 256.64 325.942 238.306 321.766 220.278C319.414 210.13 316.518 200.153 313.502 190.187C313.41 189.886 312.93 189.971 313.014 190.285C322.344 225.417 329.998 261.672 329.471 298.192C329.323 308.413 328.141 318.451 327.17 328.608C327.145 328.88 327.591 328.988 327.654 328.709C329.58 320.017 330.206 310.91 330.567 302.034Z" fill="#51B71B"/>
<path d="M313.014 190.284C313.014 190.284 298.879 226.16 302.044 234.592C305.209 243.025 311.733 244.823 311.733 244.823C311.733 244.823 303.085 257.17 309.128 268.75C315.171 280.33 328.598 279.782 329.49 292.912C329.49 292.912 330.238 238.013 313.014 190.284Z" fill="#51B71B"/>
<path d="M327.954 270.244C327.971 270.184 327.968 270.12 327.94 270.055C325.955 245.662 321.627 221.344 314.23 197.886C314.209 197.816 314.094 197.838 314.114 197.91C316.914 208.405 319.406 218.956 321.535 229.564C319.7 227.674 317.298 226.587 314.788 225.802C314.741 225.788 314.718 225.855 314.762 225.874C317.377 227.004 319.881 228.314 321.729 230.53C322.142 232.609 322.546 234.689 322.93 236.772C319.771 233.242 315.39 231.49 311.007 229.826C310.946 229.802 310.913 229.898 310.973 229.922C315.538 231.78 320.085 234.174 323.178 238.108C324.256 244.062 325.199 250.036 326.016 256.029C323.707 253.616 320.857 251.995 317.587 251.198C317.489 251.174 317.434 251.32 317.534 251.349C320.893 252.316 323.782 254.196 326.082 256.824C326.098 256.842 326.116 256.851 326.134 256.864C326.418 258.973 326.684 261.083 326.934 263.196C325.155 261.679 323.19 260.526 321.026 259.633C320.969 259.609 320.938 259.699 320.994 259.723C323.192 260.658 325.17 262.007 326.911 263.639C326.936 263.662 326.961 263.66 326.986 263.669C327.222 265.678 327.456 267.687 327.659 269.702C324.418 265.797 320.412 262.971 315.671 261.142C315.578 261.106 315.531 261.248 315.62 261.286C320.229 263.291 324.292 266.466 327.434 270.378C327.521 270.485 327.633 270.502 327.732 270.471C328.038 273.558 328.311 276.65 328.538 279.748C328.542 279.79 328.611 279.794 328.609 279.751C328.432 276.582 328.21 273.412 327.954 270.244Z" fill="#378110"/>
<path d="M316.598 222.237C314.146 220.552 311.031 219.833 308.106 219.59C308.035 219.583 308.03 219.687 308.098 219.698C311.141 220.15 313.698 221.251 316.494 222.44C316.616 222.491 316.702 222.31 316.598 222.237Z" fill="#378110"/>
<path d="M318.313 260.22C316.374 259.056 314.161 258.398 311.938 258.04C311.861 258.028 311.854 258.147 311.93 258.161C314.186 258.57 316.185 259.373 318.235 260.372C318.323 260.414 318.396 260.27 318.313 260.22Z" fill="#378110"/>
<path d="M367.724 235.178C361.83 239.322 356.173 244.101 351.365 249.478C346.24 255.21 342.502 261.715 339.891 268.935C334.543 283.727 331.612 299.75 331.344 315.47C331.194 324.283 331.978 333.026 333.863 341.641C333.932 341.954 334.401 341.866 334.352 341.549C332.047 326.394 332.131 310.93 334.608 295.803C337.038 280.962 340.85 264.815 350.285 252.754C355.422 246.186 361.826 241.019 368.158 235.68C368.492 235.398 368.067 234.937 367.724 235.178Z" fill="#51B71B"/>
<path d="M333.425 304.784C333.425 304.784 338.279 296.61 345.35 289.541C352.42 282.472 358.375 277.448 359.294 272.773C360.214 268.098 352.211 264.654 352.211 264.654C352.211 264.654 361.996 266.41 364.674 262.305C367.35 258.198 368.643 234.414 368.643 234.414C368.643 234.414 350.842 247.123 342.549 264.938C334.255 282.753 333.425 304.784 333.425 304.784Z" fill="#51B71B"/>
<path d="M362.485 240.51C354.994 247.866 347.457 255.706 343.046 265.37C341.534 268.684 340.246 272.12 339.114 275.622C339.11 275.627 339.11 275.633 339.108 275.638C338.881 276.341 338.65 277.042 338.436 277.75C338.414 277.785 338.403 277.824 338.4 277.866C336.219 285.083 334.678 292.547 333.343 299.839C333.334 299.886 333.406 299.911 333.416 299.862C334.183 296.151 335.029 292.405 335.974 288.669C336.008 288.67 336.044 288.663 336.081 288.648C337.595 288.012 339.118 287.613 340.752 287.462C340.858 287.453 340.85 287.268 340.742 287.273C339.165 287.349 337.621 287.625 336.122 288.116C336.984 284.747 337.922 281.388 338.974 278.077C342.411 277.235 345.998 276.781 349.532 276.697C349.568 276.696 349.574 276.642 349.537 276.639C345.974 276.474 342.626 276.781 339.156 277.52C339.339 276.951 339.531 276.386 339.721 275.821C342.042 275.292 344.372 274.847 346.746 274.63C346.789 274.626 346.786 274.554 346.742 274.554C344.418 274.617 342.126 274.862 339.863 275.39C340.832 272.525 341.878 269.699 343.04 266.947C344.001 264.67 345.142 262.509 346.401 260.422C348.304 259.99 350.149 259.58 352.099 259.406C352.154 259.401 352.147 259.314 352.094 259.311C350.324 259.196 348.479 259.329 346.766 259.838C347.702 258.326 348.686 256.844 349.739 255.41C353.731 254.526 357.778 253.705 361.861 254.472C361.931 254.486 361.958 254.366 361.887 254.349C358 253.326 354.142 253.917 350.274 254.682C350.695 254.12 351.127 253.566 351.563 253.014C354.014 252.256 356.451 251.89 359.022 251.842C359.074 251.842 359.082 251.765 359.029 251.76C356.682 251.536 354.342 251.763 352.074 252.378C355.375 248.277 359.02 244.426 362.623 240.618C362.793 240.439 362.662 240.336 362.485 240.51Z" fill="#378110"/>
<path d="M362.286 256.723C361.114 256.598 359.922 256.467 358.746 256.6C358.603 256.616 358.615 256.848 358.758 256.852C359.93 256.886 361.102 256.799 362.274 256.862C362.364 256.868 362.375 256.733 362.286 256.723Z" fill="#378110"/>
<path d="M349.473 279.796C347.602 279.773 345.734 280.276 343.986 280.898C343.942 280.914 343.967 280.986 344.012 280.976C345.824 280.545 347.657 280.37 349.486 280.068C349.637 280.042 349.63 279.798 349.473 279.796Z" fill="#378110"/>
<path d="M345.634 271.826C344.874 271.786 344.053 271.919 343.305 272.036C343.228 272.048 343.232 272.174 343.312 272.175C344.069 272.188 344.901 272.209 345.646 272.066C345.778 272.04 345.772 271.833 345.634 271.826Z" fill="#378110"/>
<path d="M281.242 260.418C286.97 262.41 292.653 264.97 297.787 268.21C303.259 271.664 307.788 276.065 311.57 281.305C319.317 292.039 325.393 304.33 329.242 316.989C331.401 324.086 332.787 331.343 333.252 338.75C333.269 339.019 332.869 339.057 332.835 338.789C331.198 325.992 327.555 313.496 322.054 301.827C316.658 290.378 309.84 278.193 299.418 270.612C293.742 266.485 287.365 263.783 281.006 260.925C280.671 260.774 280.909 260.302 281.242 260.418Z" fill="#51B71B"/>
<path d="M325.088 308.822C325.088 308.822 319.27 303.328 311.914 299.242C304.558 295.155 298.578 292.466 296.753 288.894C294.929 285.323 300.609 280.687 300.609 280.687C300.609 280.687 293.096 284.37 289.981 281.666C286.865 278.962 280.322 260.012 280.322 260.012C280.322 260.012 297.665 266.183 308.495 278.683C319.324 291.184 325.088 308.822 325.088 308.822Z" fill="#51B71B"/>
<path d="M324.185 304.913C315.51 288.631 303.936 273.902 288.076 264.179C288.069 264.175 288.062 264.186 288.068 264.19C292.243 266.85 296.091 269.919 299.677 273.274C296.467 273.185 293.198 273.696 290.352 275.242C290.289 275.276 290.334 275.361 290.399 275.339C293.571 274.266 296.619 273.562 299.994 273.718C300.04 273.72 300.07 273.696 300.102 273.677C300.666 274.21 301.221 274.753 301.77 275.301C300.102 275.372 298.414 275.608 296.788 275.962C296.744 275.971 296.757 276.039 296.802 276.03C298.562 275.69 300.279 275.571 302.065 275.596C304.971 278.516 307.679 281.641 310.246 284.885C309.087 284.716 307.872 284.814 306.762 285.138C306.679 285.162 306.701 285.28 306.787 285.269C308.051 285.11 309.252 285.13 310.506 285.218C310.982 285.822 311.461 286.422 311.926 287.035C308.36 286.821 304.866 287.162 301.4 288.058C301.349 288.071 301.363 288.15 301.416 288.14C304.99 287.438 308.595 287.214 312.227 287.438C312.67 288.025 313.089 288.628 313.522 289.222C311.394 289.157 309.331 289.422 307.257 289.939C307.178 289.959 307.201 290.083 307.281 290.065C309.415 289.578 311.585 289.456 313.767 289.559C315.634 292.13 317.421 294.758 319.138 297.418C318.229 297.231 317.274 297.333 316.388 297.584C316.341 297.598 316.354 297.665 316.402 297.659C317.423 297.54 318.376 297.671 319.378 297.8C320.923 300.205 322.416 302.634 323.847 305.076C323.967 305.282 324.3 305.129 324.185 304.913Z" fill="#378110"/>
<path d="M310.692 291.407C308.996 291.262 307.273 291.528 305.653 292.024C305.607 292.038 305.618 292.108 305.667 292.099C307.334 291.792 308.988 291.676 310.678 291.586C310.79 291.579 310.81 291.418 310.692 291.407Z" fill="#378110"/>
<path d="M295.563 271.565C294.797 271.478 293.997 271.578 293.239 271.7C293.149 271.714 293.177 271.847 293.266 271.838C294.03 271.756 294.783 271.785 295.548 271.762C295.673 271.758 295.693 271.58 295.563 271.565Z" fill="#378110"/>
<path d="M347.458 362.662H308.31L313.891 321.771L315.318 311.287H340.45L341.876 321.771L347.458 362.662Z" fill="#8DB6F4"/>
<path d="M341.876 321.771H313.891L315.318 311.287H340.45L341.876 321.771Z" fill="#7AA1DB"/>
<path d="M344.043 307.65H311.724V316.529H344.043V307.65Z" fill="#8DB6F4"/>
</svg>
