<svg width="20" height="20" viewBox="0 0 20 20" fill="none" xmlns="http://www.w3.org/2000/svg">
<g clip-path="url(#clip0_560_98)">
<path d="M11.6667 10.0001V13.3334H8.33333V10.0001H11.6667ZM20 8.10342L20 15.8334C20 18.1309 18.1308 20.0001 15.8333 20.0001L4.16667 20.0001C1.86917 20.0001 0 18.1309 0 15.8334L0 8.10342C0 6.71592 0.686667 5.42509 1.83667 4.64925L7.66917 0.712588C9.085 -0.242412 10.915 -0.242412 12.3308 0.712588L16.6667 3.63842V1.66675C16.6667 1.20592 17.04 0.833421 17.5 0.833421C17.96 0.833421 18.3333 1.20592 18.3333 1.66675V4.77925C19.3775 5.56425 20 6.78759 20 8.10259V8.10342ZM13.3333 10.0001C13.3333 9.08092 12.5858 8.33342 11.6667 8.33342H8.33333C7.41417 8.33342 6.66667 9.08092 6.66667 10.0001L6.66667 13.3334C6.66667 14.2526 7.41417 15.0001 8.33333 15.0001H11.6667C12.5858 15.0001 13.3333 14.2526 13.3333 13.3334V10.0001Z" fill="url(#paint0_linear_560_98)"/>
</g>
<defs>
<linearGradient id="paint0_linear_560_98" x1="17.287" y1="-0.0743968" x2="4.42326" y2="17.8531" gradientUnits="userSpaceOnUse">
<stop stop-color="#3170CE"/>
<stop offset="0.688336" stop-color="#31B2CE"/>
</linearGradient>
<clipPath id="clip0_560_98">
<rect width="20" height="20" fill="white"/>
</clipPath>
</defs>
</svg>
