<svg width="20" height="20" viewBox="0 0 20 20" fill="none" xmlns="http://www.w3.org/2000/svg">
<g clip-path="url(#clip0_560_781)">
<path d="M11.6667 8.33336H8.33333C7.41417 8.33336 6.66667 9.08086 6.66667 10L6.66667 13.3334C6.66667 14.2525 7.41417 15 8.33333 15H11.6667C12.5858 15 13.3333 14.2525 13.3333 13.3334V10C13.3333 9.08086 12.5858 8.33336 11.6667 8.33336ZM8.33333 13.3334V10H11.6667V13.3334H8.33333ZM18.3333 4.77003V1.66669C18.3333 1.20586 17.96 0.83336 17.5 0.83336C17.04 0.83336 16.6667 1.20586 16.6667 1.66669V3.63919L12.3308 0.712527C10.915 -0.242473 9.085 -0.242473 7.66917 0.712527L1.83667 4.64919C0.686667 5.42503 0 6.71503 0 8.10336L0 15.8334C0 18.1309 1.86917 20 4.16667 20L15.8333 20C18.1308 20 20 18.1309 20 15.8334L20 8.10336C20 6.78586 19.38 5.55419 18.3333 4.77003ZM18.3333 15.8334C18.3333 17.2117 17.2117 18.3334 15.8333 18.3334L4.16667 18.3334C2.78833 18.3334 1.66667 17.2117 1.66667 15.8334L1.66667 8.10336C1.66667 7.27086 2.07833 6.49669 2.76833 6.03169L8.60167 2.09503C9.02667 1.80753 9.51333 1.66419 10 1.66419C10.4867 1.66419 10.9733 1.80753 11.3983 2.09503L17.2317 6.03169C17.9217 6.49753 18.3333 7.27086 18.3333 8.10336L18.3333 15.8334Z" fill="#4D4D4D"/>
</g>
<defs>
<clipPath id="clip0_560_781">
<rect width="20" height="20" fill="white"/>
</clipPath>
</defs>
</svg>
