<svg width="20" height="20" viewBox="0 0 20 20" fill="none" xmlns="http://www.w3.org/2000/svg">
<g clip-path="url(#clip0_560_132)">
<path d="M10 0C4.48583 0 0 4.48583 0 10C0 15.5142 4.48583 20 10 20C15.5142 20 20 15.5142 20 10C20 4.48583 15.5142 0 10 0ZM10 18.3333C5.405 18.3333 1.66667 14.595 1.66667 10C1.66667 5.405 5.405 1.66667 10 1.66667C14.595 1.66667 18.3333 5.405 18.3333 10C18.3333 14.595 14.595 18.3333 10 18.3333ZM6.66667 10C6.66667 10.69 6.10667 11.25 5.41667 11.25C4.72667 11.25 4.16667 10.69 4.16667 10C4.16667 9.31 4.72667 8.75 5.41667 8.75C6.10667 8.75 6.66667 9.31 6.66667 10ZM15.8333 10C15.8333 10.69 15.2733 11.25 14.5833 11.25C13.8933 11.25 13.3333 10.69 13.3333 10C13.3333 9.31 13.8933 8.75 14.5833 8.75C15.2733 8.75 15.8333 9.31 15.8333 10ZM11.25 10C11.25 10.69 10.69 11.25 10 11.25C9.31 11.25 8.75 10.69 8.75 10C8.75 9.31 9.31 8.75 10 8.75C10.69 8.75 11.25 9.31 11.25 10Z" fill="#4D4D4D"/>
</g>
<defs>
<clipPath id="clip0_560_132">
<rect width="20" height="20" fill="white"/>
</clipPath>
</defs>
</svg>
