<svg width="12" height="12" viewBox="0 0 12 12" fill="none" xmlns="http://www.w3.org/2000/svg">
<g clip-path="url(#clip0_640_288)">
<path d="M6 0C4.80701 0.00158253 3.66334 0.476196 2.81977 1.31977C1.9762 2.16334 1.50158 3.30701 1.5 4.5C1.5 7.73063 5.6925 11.7769 5.87063 11.9475C5.90527 11.9812 5.95168 12 6 12C6.04832 12 6.09473 11.9812 6.12937 11.9475C6.3075 11.7769 10.5 7.73063 10.5 4.5C10.4984 3.30701 10.0238 2.16334 9.18023 1.31977C8.33666 0.476196 7.19299 0.00158253 6 0ZM6 6.5625C5.59208 6.5625 5.19331 6.44154 4.85414 6.21491C4.51496 5.98828 4.2506 5.66616 4.0945 5.28928C3.93839 4.91241 3.89755 4.49771 3.97713 4.09763C4.05671 3.69754 4.25315 3.33004 4.54159 3.04159C4.83004 2.75315 5.19754 2.55671 5.59763 2.47713C5.99771 2.39755 6.41241 2.43839 6.78928 2.5945C7.16616 2.7506 7.48828 3.01496 7.71491 3.35414C7.94154 3.69331 8.0625 4.09208 8.0625 4.5C8.06217 5.04691 7.84477 5.57132 7.45805 5.95805C7.07132 6.34477 6.54691 6.56217 6 6.5625Z" fill="#3170CE"/>
<g clip-path="url(#clip1_640_288)">
</g>
</g>
<defs>
<clipPath id="clip0_640_288">
<rect width="12" height="12" fill="white"/>
</clipPath>
<clipPath id="clip1_640_288">
<rect width="188.979" height="188.979" fill="white" transform="translate(-82.2 -82.2)"/>
</clipPath>
</defs>
</svg>
