<svg width="20" height="20" viewBox="0 0 20 20" fill="none" xmlns="http://www.w3.org/2000/svg">
<g clip-path="url(#clip0_560_114)">
<path d="M19.45 7.90075L16.5333 2.90075C15.7892 1.62575 14.41 0.833252 12.9342 0.833252L7.04332 0.833252C5.56749 0.833252 4.18749 1.62575 3.44415 2.90075L0.526654 7.90075C-0.227513 9.19492 -0.227513 10.8033 0.526654 12.0991L3.44415 17.0991C4.18832 18.3741 5.56665 19.1658 7.04249 19.1658H12.9333C14.4092 19.1658 15.7883 18.3741 16.5325 17.0991L19.4492 12.0983C20.2033 10.8033 20.2033 9.19492 19.4492 7.89992L19.45 7.90075ZM13.3333 10.8333H10.8333V13.3333C10.8333 13.7941 10.4608 14.1666 9.99999 14.1666C9.53916 14.1666 9.16665 13.7941 9.16665 13.3333V10.8333L6.66665 10.8333C6.20582 10.8333 5.83332 10.4599 5.83332 9.99992C5.83332 9.53992 6.20582 9.16658 6.66665 9.16658L9.16665 9.16658L9.16665 6.66658C9.16665 6.20659 9.53916 5.83325 9.99999 5.83325C10.4608 5.83325 10.8333 6.20659 10.8333 6.66658L10.8333 9.16658H13.3333C13.7942 9.16658 14.1667 9.53992 14.1667 9.99992C14.1667 10.4599 13.7942 10.8333 13.3333 10.8333Z" fill="white"/>
</g>
<defs>
<clipPath id="clip0_560_114">
<rect width="20" height="20" fill="white"/>
</clipPath>
</defs>
</svg>
