<svg width="20" height="19" viewBox="0 0 20 19" fill="none" xmlns="http://www.w3.org/2000/svg">
<path d="M19.45 7.0675L16.5334 2.0675C15.7892 0.7925 14.41 0 12.9342 0L7.04335 0C5.56752 0 4.18752 0.7925 3.44418 2.0675L0.526685 7.0675C-0.227482 8.36167 -0.227482 9.97 0.526685 11.2658L3.44418 16.2658C4.18835 17.5408 5.56669 18.3325 7.04252 18.3325H12.9334C14.4092 18.3325 15.7884 17.5408 16.5325 16.2658L19.4492 11.265C20.2034 9.97 20.2034 8.36167 19.4492 7.06667L19.45 7.0675ZM13.3334 10H10.8334V12.5C10.8334 12.9608 10.4609 13.3333 10 13.3333C9.53919 13.3333 9.16669 12.9608 9.16669 12.5V10L6.66669 10C6.20585 10 5.83335 9.62667 5.83335 9.16667C5.83335 8.70667 6.20585 8.33333 6.66669 8.33333L9.16669 8.33333L9.16669 5.83333C9.16669 5.37333 9.53919 5 10 5C10.4609 5 10.8334 5.37333 10.8334 5.83333L10.8334 8.33333H13.3334C13.7942 8.33333 14.1667 8.70667 14.1667 9.16667C14.1667 9.62667 13.7942 10 13.3334 10Z" fill="white"/>
</svg>
