<svg width="16" height="16" viewBox="0 0 16 16" fill="none" xmlns="http://www.w3.org/2000/svg">
<g clip-path="url(#clip0_608_1055)">
<path d="M14.8 1.442C14.42 1.1249 13.9741 0.896427 13.4947 0.773156C13.0153 0.649885 12.5145 0.634914 12.0287 0.72933L10.8527 1.01733C10.239 1.12979 9.68412 1.45389 9.2847 1.93321C8.88528 2.41254 8.66659 3.01674 8.66667 3.64066V13.952C8.22457 14.0167 7.77543 14.0167 7.33333 13.952V3.64066C7.33555 3.02249 7.1219 2.42294 6.72926 1.94547C6.33662 1.468 5.78963 1.14256 5.18267 1.02533L3.93333 0.72133C3.45277 0.633393 2.95875 0.652164 2.48625 0.776314C2.01375 0.900464 1.57431 1.12696 1.19904 1.43977C0.823778 1.75257 0.521857 2.14404 0.314655 2.58647C0.107452 3.02889 3.25416e-05 3.51146 0 4L0 11.1953C3.83039e-05 11.9759 0.273984 12.7316 0.774089 13.3309C1.27419 13.9302 1.96874 14.3349 2.73667 14.4747L6.92733 15.2367C7.63664 15.3655 8.36336 15.3655 9.07267 15.2367L13.2667 14.4747C14.034 14.3343 14.7278 13.9292 15.2272 13.33C15.7266 12.7308 16.0001 11.9754 16 11.1953V4C16.0003 3.51163 15.8929 3.0292 15.6855 2.58706C15.4781 2.14492 15.1758 1.75395 14.8 1.442Z" fill="url(#paint0_linear_608_1055)"/>
</g>
<defs>
<linearGradient id="paint0_linear_608_1055" x1="13.8296" y1="0.615024" x2="4.68853" y2="14.5154" gradientUnits="userSpaceOnUse">
<stop stop-color="#3170CE"/>
<stop offset="0.688336" stop-color="#31B2CE"/>
</linearGradient>
<clipPath id="clip0_608_1055">
<rect width="16" height="16" fill="white"/>
</clipPath>
</defs>
</svg>
