<svg width="20" height="20" viewBox="0 0 20 20" fill="none" xmlns="http://www.w3.org/2000/svg">
<g clip-path="url(#clip0_560_106)">
<path d="M19.7558 18.5776L14.7817 13.6034C16.1372 11.9456 16.8037 9.83014 16.6432 7.6947C16.4828 5.55926 15.5077 3.56717 13.9197 2.1305C12.3316 0.693821 10.2522 -0.0775273 8.11137 -0.0240008C5.97058 0.0295257 3.93225 0.903832 2.41801 2.41807C0.903771 3.93232 0.0294646 5.97064 -0.0240619 8.11143C-0.0775884 10.2522 0.69376 12.3317 2.13044 13.9197C3.56711 15.5077 5.55919 16.4828 7.69464 16.6433C9.83008 16.8037 11.9455 16.1372 13.6033 14.7817L18.5775 19.7559C18.7347 19.9077 18.9452 19.9917 19.1637 19.9898C19.3822 19.9879 19.5912 19.9003 19.7457 19.7457C19.9002 19.5912 19.9878 19.3822 19.9897 19.1637C19.9916 18.9452 19.9076 18.7347 19.7558 18.5776ZM8.33333 15.0001C7.01479 15.0001 5.72586 14.6091 4.62953 13.8765C3.53321 13.144 2.67872 12.1028 2.17414 10.8846C1.66955 9.66644 1.53753 8.326 1.79477 7.03279C2.052 5.73959 2.68694 4.5517 3.61929 3.61935C4.55164 2.687 5.73953 2.05206 7.03273 1.79483C8.32594 1.53759 9.66638 1.66961 10.8846 2.1742C12.1027 2.67878 13.1439 3.53327 13.8765 4.62959C14.609 5.72592 15 7.01485 15 8.3334C14.998 10.1009 14.295 11.7954 13.0452 13.0452C11.7954 14.2951 10.1008 14.9981 8.33333 15.0001Z" fill="#4D4D4D"/>
</g>
<defs>
<clipPath id="clip0_560_106">
<rect width="20" height="20" fill="white"/>
</clipPath>
</defs>
</svg>
