<svg width="82" height="45" viewBox="0 0 82 45" fill="none" xmlns="http://www.w3.org/2000/svg">
<rect width="82" height="45" rx="5" fill="url(#paint0_linear_587_797)"/>
<g clip-path="url(#clip0_587_797)">
<path d="M50.45 12.9008L47.5334 7.90081C46.7892 6.62581 45.41 5.83331 43.9342 5.83331L38.0434 5.83331C36.5675 5.83331 35.1875 6.62581 34.4442 7.90081L31.5267 12.9008C30.7725 14.195 30.7725 15.8033 31.5267 17.0991L34.4442 22.0991C35.1884 23.3741 36.5667 24.1658 38.0425 24.1658H43.9334C45.4092 24.1658 46.7884 23.3741 47.5325 22.0991L50.4492 17.0983C51.2034 15.8033 51.2034 14.195 50.4492 12.9L50.45 12.9008ZM44.3334 15.8333H41.8334V18.3333C41.8334 18.7941 41.4609 19.1666 41 19.1666C40.5392 19.1666 40.1667 18.7941 40.1667 18.3333V15.8333L37.6667 15.8333C37.2059 15.8333 36.8334 15.46 36.8334 15C36.8334 14.54 37.2059 14.1666 37.6667 14.1666L40.1667 14.1666V11.6666C40.1667 11.2066 40.5392 10.8333 41 10.8333C41.4609 10.8333 41.8334 11.2066 41.8334 11.6666V14.1666H44.3334C44.7942 14.1666 45.1667 14.54 45.1667 15C45.1667 15.46 44.7942 15.8333 44.3334 15.8333Z" fill="white"/>
</g>
<path d="M20.8416 38V31H23.3316C23.9049 31 24.3749 31.0967 24.7416 31.29C25.1149 31.4833 25.3916 31.7433 25.5716 32.07C25.7516 32.3967 25.8416 32.77 25.8416 33.19C25.8416 33.5833 25.7516 33.9467 25.5716 34.28C25.3982 34.6067 25.1282 34.87 24.7616 35.07C24.3949 35.27 23.9182 35.37 23.3316 35.37H22.0416V38H20.8416ZM22.0416 34.39H23.2716C23.7649 34.39 24.1116 34.28 24.3116 34.06C24.5182 33.84 24.6216 33.55 24.6216 33.19C24.6216 32.8167 24.5182 32.5233 24.3116 32.31C24.1116 32.09 23.7649 31.98 23.2716 31.98H22.0416V34.39ZM28.9814 38.12C28.4881 38.12 28.0481 38.0067 27.6614 37.78C27.2814 37.5467 26.9847 37.2267 26.7714 36.82C26.5581 36.4067 26.4514 35.93 26.4514 35.39C26.4514 34.85 26.5581 34.3767 26.7714 33.97C26.9914 33.5567 27.2914 33.2367 27.6714 33.01C28.0581 32.7767 28.4981 32.66 28.9914 32.66C29.4847 32.66 29.9214 32.7767 30.3014 33.01C30.6814 33.2367 30.9781 33.5567 31.1914 33.97C31.4047 34.3767 31.5114 34.85 31.5114 35.39C31.5114 35.93 31.4014 36.4067 31.1814 36.82C30.9681 37.2267 30.6714 37.5467 30.2914 37.78C29.9114 38.0067 29.4747 38.12 28.9814 38.12ZM28.9714 37.09C29.2314 37.09 29.4581 37.0267 29.6514 36.9C29.8514 36.7733 30.0081 36.5833 30.1214 36.33C30.2347 36.0767 30.2914 35.7633 30.2914 35.39C30.2914 35.0167 30.2347 34.7033 30.1214 34.45C30.0147 34.1967 29.8614 34.01 29.6614 33.89C29.4681 33.7633 29.2447 33.7 28.9914 33.7C28.7381 33.7 28.5114 33.7633 28.3114 33.89C28.1181 34.01 27.9647 34.1967 27.8514 34.45C27.7381 34.7033 27.6814 35.0167 27.6814 35.39C27.6814 35.7633 27.7381 36.0767 27.8514 36.33C27.9647 36.5833 28.1181 36.7733 28.3114 36.9C28.5047 37.0267 28.7247 37.09 28.9714 37.09ZM34.7252 38.12C34.2318 38.12 33.8185 38.0467 33.4852 37.9C33.1585 37.7533 32.9118 37.55 32.7452 37.29C32.5785 37.03 32.4818 36.7333 32.4552 36.4H33.6552C33.6752 36.54 33.7252 36.67 33.8052 36.79C33.8852 36.91 33.9985 37.0067 34.1452 37.08C34.2985 37.1467 34.4885 37.18 34.7152 37.18C34.9085 37.18 35.0718 37.1533 35.2052 37.1C35.3385 37.04 35.4385 36.96 35.5052 36.86C35.5718 36.76 35.6052 36.6467 35.6052 36.52C35.6052 36.3467 35.5618 36.2133 35.4752 36.12C35.3952 36.02 35.2718 35.9433 35.1052 35.89C34.9452 35.8367 34.7452 35.7933 34.5052 35.76C34.2118 35.7133 33.9452 35.6533 33.7052 35.58C33.4718 35.5067 33.2718 35.4133 33.1052 35.3C32.9385 35.18 32.8085 35.03 32.7152 34.85C32.6285 34.67 32.5852 34.4533 32.5852 34.2C32.5852 33.9067 32.6652 33.6433 32.8252 33.41C32.9852 33.1767 33.2185 32.9933 33.5252 32.86C33.8318 32.7267 34.1952 32.66 34.6152 32.66C35.2285 32.66 35.7085 32.7967 36.0552 33.07C36.4018 33.3367 36.6052 33.7067 36.6652 34.18H35.5252C35.4918 34 35.3952 33.86 35.2352 33.76C35.0752 33.66 34.8652 33.61 34.6052 33.61C34.3252 33.61 34.1118 33.66 33.9652 33.76C33.8252 33.86 33.7552 33.9933 33.7552 34.16C33.7552 34.2733 33.7885 34.3767 33.8552 34.47C33.9285 34.5633 34.0452 34.6433 34.2052 34.71C34.3652 34.7767 34.5818 34.83 34.8552 34.87C35.2885 34.9367 35.6485 35.0233 35.9352 35.13C36.2285 35.23 36.4485 35.3833 36.5952 35.59C36.7485 35.7967 36.8218 36.0833 36.8152 36.45C36.8152 36.7967 36.7285 37.0967 36.5552 37.35C36.3818 37.5967 36.1385 37.7867 35.8252 37.92C35.5118 38.0533 35.1452 38.12 34.7252 38.12ZM40.0921 38C39.7588 38 39.4654 37.9467 39.2121 37.84C38.9588 37.7333 38.7621 37.5567 38.6221 37.31C38.4888 37.0633 38.4221 36.73 38.4221 36.31V33.79H37.5221V32.78H38.4221L38.5621 31.38H39.6221V32.78H41.0121V33.79H39.6221V36.31C39.6221 36.5633 39.6754 36.74 39.7821 36.84C39.8888 36.9333 40.0754 36.98 40.3421 36.98H41.0121V38H40.0921ZM46.5283 38.12C46.0816 38.12 45.6916 38.0367 45.3583 37.87C45.0316 37.6967 44.7749 37.45 44.5883 37.13C44.4083 36.8033 44.3183 36.41 44.3183 35.95H45.5183C45.5183 36.17 45.5516 36.3633 45.6183 36.53C45.6916 36.6967 45.7983 36.8267 45.9383 36.92C46.0849 37.0067 46.2716 37.05 46.4983 37.05C46.7183 37.05 46.8949 37.0067 47.0283 36.92C47.1683 36.8333 47.2683 36.7133 47.3283 36.56C47.3949 36.4 47.4283 36.2167 47.4283 36.01V31H48.6283V36.01C48.6283 36.69 48.4383 37.2133 48.0583 37.58C47.6849 37.94 47.1749 38.12 46.5283 38.12ZM52.4091 38.12C51.9158 38.12 51.4758 38.0067 51.0891 37.78C50.7091 37.5467 50.4125 37.2267 50.1991 36.82C49.9858 36.4067 49.8791 35.93 49.8791 35.39C49.8791 34.85 49.9858 34.3767 50.1991 33.97C50.4191 33.5567 50.7191 33.2367 51.0991 33.01C51.4858 32.7767 51.9258 32.66 52.4191 32.66C52.9125 32.66 53.3491 32.7767 53.7291 33.01C54.1091 33.2367 54.4058 33.5567 54.6191 33.97C54.8325 34.3767 54.9391 34.85 54.9391 35.39C54.9391 35.93 54.8291 36.4067 54.6091 36.82C54.3958 37.2267 54.0991 37.5467 53.7191 37.78C53.3391 38.0067 52.9025 38.12 52.4091 38.12ZM52.3991 37.09C52.6591 37.09 52.8858 37.0267 53.0791 36.9C53.2791 36.7733 53.4358 36.5833 53.5491 36.33C53.6625 36.0767 53.7191 35.7633 53.7191 35.39C53.7191 35.0167 53.6625 34.7033 53.5491 34.45C53.4425 34.1967 53.2891 34.01 53.0891 33.89C52.8958 33.7633 52.6725 33.7 52.4191 33.7C52.1658 33.7 51.9391 33.7633 51.7391 33.89C51.5458 34.01 51.3925 34.1967 51.2791 34.45C51.1658 34.7033 51.1091 35.0167 51.1091 35.39C51.1091 35.7633 51.1658 36.0767 51.2791 36.33C51.3925 36.5833 51.5458 36.7733 51.7391 36.9C51.9325 37.0267 52.1525 37.09 52.3991 37.09ZM59.0229 38.12C58.7296 38.12 58.4762 38.08 58.2629 38C58.0496 37.92 57.8662 37.8167 57.7129 37.69C57.5662 37.5633 57.4462 37.4367 57.3529 37.31L57.2229 38H56.1529V30.8H57.3529V33.53C57.5196 33.2433 57.7462 33.0267 58.0329 32.88C58.3196 32.7333 58.6396 32.66 58.9929 32.66C59.4662 32.66 59.8829 32.78 60.2429 33.02C60.6029 33.2533 60.8829 33.5733 61.0829 33.98C61.2829 34.3867 61.3829 34.8533 61.3829 35.38C61.3829 35.9 61.2829 36.3667 61.0829 36.78C60.8829 37.1933 60.6062 37.52 60.2529 37.76C59.8996 38 59.4896 38.12 59.0229 38.12ZM58.7529 37.08C59.0262 37.08 59.2662 37.01 59.4729 36.87C59.6862 36.73 59.8529 36.5367 59.9729 36.29C60.0996 36.0367 60.1629 35.7367 60.1629 35.39C60.1629 35.05 60.0996 34.7533 59.9729 34.5C59.8529 34.2467 59.6862 34.0533 59.4729 33.92C59.2662 33.78 59.0262 33.71 58.7529 33.71C58.4729 33.71 58.2262 33.78 58.0129 33.92C57.7996 34.0533 57.6329 34.2467 57.5129 34.5C57.3996 34.7533 57.3429 35.05 57.3429 35.39C57.3429 35.7367 57.3996 36.0367 57.5129 36.29C57.6329 36.5367 57.7996 36.73 58.0129 36.87C58.2262 37.01 58.4729 37.08 58.7529 37.08Z" fill="white"/>
<defs>
<linearGradient id="paint0_linear_587_797" x1="70.8765" y1="-0.159123" x2="50.0519" y2="52.7356" gradientUnits="userSpaceOnUse">
<stop stop-color="#3170CE"/>
<stop offset="0.688336" stop-color="#31B2CE"/>
</linearGradient>
<clipPath id="clip0_587_797">
<rect width="20" height="20" fill="white" transform="translate(31 5)"/>
</clipPath>
</defs>
</svg>
